%TF.GenerationSoftware,KiCad,Pcbnew,9.0.0*%
%TF.CreationDate,2025-04-09T21:38:28+02:00*%
%TF.ProjectId,ProLib_pcs_2025-03-23,50726f4c-6962-45f7-9063-735f32303235,rev?*%
%TF.SameCoordinates,Original*%
%TF.FileFunction,Copper,L2,Bot*%
%TF.FilePolarity,Positive*%
%FSLAX46Y46*%
G04 Gerber Fmt 4.6, Leading zero omitted, Abs format (unit mm)*
G04 Created by KiCad (PCBNEW 9.0.0) date 2025-04-09 21:38:28*
%MOMM*%
%LPD*%
G01*
G04 APERTURE LIST*
G04 Aperture macros list*
%AMRoundRect*
0 Rectangle with rounded corners*
0 $1 Rounding radius*
0 $2 $3 $4 $5 $6 $7 $8 $9 X,Y pos of 4 corners*
0 Add a 4 corners polygon primitive as box body*
4,1,4,$2,$3,$4,$5,$6,$7,$8,$9,$2,$3,0*
0 Add four circle primitives for the rounded corners*
1,1,$1+$1,$2,$3*
1,1,$1+$1,$4,$5*
1,1,$1+$1,$6,$7*
1,1,$1+$1,$8,$9*
0 Add four rect primitives between the rounded corners*
20,1,$1+$1,$2,$3,$4,$5,0*
20,1,$1+$1,$4,$5,$6,$7,0*
20,1,$1+$1,$6,$7,$8,$9,0*
20,1,$1+$1,$8,$9,$2,$3,0*%
G04 Aperture macros list end*
%TA.AperFunction,ComponentPad*%
%ADD10RoundRect,0.250000X-0.350000X-0.625000X0.350000X-0.625000X0.350000X0.625000X-0.350000X0.625000X0*%
%TD*%
%TA.AperFunction,ComponentPad*%
%ADD11O,1.200000X1.750000*%
%TD*%
%TA.AperFunction,ComponentPad*%
%ADD12R,2.500000X3.000000*%
%TD*%
%TA.AperFunction,ComponentPad*%
%ADD13C,3.000000*%
%TD*%
%TA.AperFunction,ComponentPad*%
%ADD14R,1.700000X1.700000*%
%TD*%
%TA.AperFunction,ComponentPad*%
%ADD15O,1.700000X1.700000*%
%TD*%
%TA.AperFunction,ComponentPad*%
%ADD16O,2.000000X0.900000*%
%TD*%
%TA.AperFunction,ComponentPad*%
%ADD17O,1.700000X0.900000*%
%TD*%
%TA.AperFunction,ViaPad*%
%ADD18C,0.600000*%
%TD*%
%TA.AperFunction,ViaPad*%
%ADD19C,3.400000*%
%TD*%
%TA.AperFunction,Conductor*%
%ADD20C,0.200000*%
%TD*%
G04 APERTURE END LIST*
D10*
%TO.P,J3,1,Pin_1*%
%TO.N,/Battery*%
X163007000Y-69844000D03*
D11*
%TO.P,J3,2,Pin_2*%
%TO.N,GND*%
X165007000Y-69844000D03*
%TD*%
D12*
%TO.P,U1,1,1*%
%TO.N,Net-(U9-IN+)*%
X170393025Y-62189000D03*
D13*
%TO.P,U1,2,2*%
%TO.N,Net-(JP12-A)*%
X165693000Y-62189000D03*
%TO.P,U1,3,3*%
%TO.N,unconnected-(U1-Pad3)*%
X160992975Y-62189000D03*
%TD*%
D14*
%TO.P,J2,1,Pin_1*%
%TO.N,/M2_OUT_2*%
X133690000Y-102850000D03*
D15*
%TO.P,J2,2,Pin_2*%
%TO.N,/M2_OUT_1*%
X133690000Y-100310000D03*
%TO.P,J2,3,Pin_3*%
%TO.N,/M4_OUT_1*%
X136230000Y-102850000D03*
%TO.P,J2,4,Pin_4*%
%TO.N,/M2_CNTRL_1*%
X136230000Y-100310000D03*
%TO.P,J2,5,Pin_5*%
%TO.N,/M4_OUT_2*%
X138770000Y-102850000D03*
%TO.P,J2,6,Pin_6*%
%TO.N,/M2_CNTRL_2*%
X138770000Y-100310000D03*
%TO.P,J2,7,Pin_7*%
%TO.N,/CTRL_EXT_LOAD2*%
X141310000Y-102850000D03*
%TO.P,J2,8,Pin_8*%
%TO.N,/M4_CNTRL_1*%
X141310000Y-100310000D03*
%TO.P,J2,9,Pin_9*%
%TO.N,unconnected-(J2-Pin_9-Pad9)*%
X143850000Y-102850000D03*
%TO.P,J2,10,Pin_10*%
%TO.N,/M4_CNTRL_2*%
X143850000Y-100310000D03*
%TO.P,J2,11,Pin_11*%
%TO.N,/EXT_LOAD2_OUT*%
X146390000Y-102850000D03*
%TO.P,J2,12,Pin_12*%
%TO.N,unconnected-(J2-Pin_12-Pad12)*%
X146390000Y-100310000D03*
%TO.P,J2,13,Pin_13*%
%TO.N,/FAST_CHRG_CTRL*%
X148930000Y-102850000D03*
%TO.P,J2,14,Pin_14*%
%TO.N,/Battery*%
X148930000Y-100310000D03*
%TO.P,J2,15,Pin_15*%
%TO.N,unconnected-(J2-Pin_15-Pad15)*%
X151470000Y-102850000D03*
%TO.P,J2,16,Pin_16*%
%TO.N,/I2C1_SCL*%
X151470000Y-100310000D03*
%TO.P,J2,17,Pin_17*%
%TO.N,/I2C1_SDA*%
X154010000Y-102850000D03*
%TO.P,J2,18,Pin_18*%
%TO.N,/3V3_Out *%
X154010000Y-100310000D03*
%TO.P,J2,19,Pin_19*%
%TO.N,GND*%
X156550000Y-102850000D03*
%TO.P,J2,20,Pin_20*%
%TO.N,/5V_OUT*%
X156550000Y-100310000D03*
%TO.P,J2,21,Pin_21*%
%TO.N,/EXT_LOAD1_OUT*%
X159090000Y-102850000D03*
%TO.P,J2,22,Pin_22*%
%TO.N,+9V*%
X159090000Y-100310000D03*
%TO.P,J2,23,Pin_23*%
%TO.N,GND*%
X161630000Y-102850000D03*
%TO.P,J2,24,Pin_24*%
%TO.N,/M3_CNTRL_1*%
X161630000Y-100310000D03*
%TO.P,J2,25,Pin_25*%
%TO.N,/CTRL_EXT_LOAD1*%
X164170000Y-102850000D03*
%TO.P,J2,26,Pin_26*%
%TO.N,/M3_CNTRL_2*%
X164170000Y-100310000D03*
%TO.P,J2,27,Pin_27*%
%TO.N,/M3_OUT_1*%
X166710000Y-102850000D03*
%TO.P,J2,28,Pin_28*%
%TO.N,/M1_CNTRL_1*%
X166710000Y-100310000D03*
%TO.P,J2,29,Pin_29*%
%TO.N,/M3_OUT_2*%
X169250000Y-102850000D03*
%TO.P,J2,30,Pin_30*%
%TO.N,/M1_CNTRL_2*%
X169250000Y-100310000D03*
%TO.P,J2,31,Pin_31*%
%TO.N,/M1_OUT_2*%
X171790000Y-102850000D03*
%TO.P,J2,32,Pin_32*%
%TO.N,/M1_OUT_1*%
X171790000Y-100310000D03*
%TD*%
D16*
%TO.P,J1,S1,SHIELD*%
%TO.N,unconnected-(J1-SHIELD-PadS1)_1*%
X182800000Y-82471000D03*
%TO.P,J1,S2,SHIELD*%
%TO.N,unconnected-(J1-SHIELD-PadS1)*%
X182800000Y-73821000D03*
D17*
%TO.P,J1,S3,SHIELD*%
%TO.N,unconnected-(J1-SHIELD-PadS1)_2*%
X186970000Y-82471000D03*
%TO.P,J1,S4,SHIELD*%
%TO.N,unconnected-(J1-SHIELD-PadS1)_3*%
X186970000Y-73821000D03*
%TD*%
D18*
%TO.N,Net-(U9-IN+)*%
X119221100Y-67283000D03*
X121907700Y-60836600D03*
%TO.N,Net-(U8-VBUS)*%
X177651900Y-62335700D03*
X179597300Y-71134900D03*
%TO.N,Net-(U6-FB)*%
X144972300Y-77000100D03*
X144972300Y-86667700D03*
%TO.N,Net-(U13-A)*%
X142433500Y-86040600D03*
X139323400Y-74857200D03*
%TO.N,/LOAD*%
X144573400Y-62426500D03*
X144282800Y-75219600D03*
X142734300Y-95395000D03*
X116937600Y-94633300D03*
X117170800Y-104456100D03*
%TO.N,/M4_CNTRL_1*%
X138102800Y-92221600D03*
%TO.N,/5V_OUT*%
X144299600Y-78627500D03*
%TO.N,/I2C1_SCL*%
X150533100Y-97289200D03*
X121848700Y-95118100D03*
X116537100Y-65467400D03*
%TO.N,/Battery*%
X170319900Y-89722100D03*
X163007000Y-53286000D03*
X148930000Y-98663200D03*
X168208600Y-98663200D03*
%TO.N,/M4_OUT_2*%
X125631200Y-101798500D03*
X117020700Y-88891000D03*
%TO.N,/EXT_LOAD2_OUT*%
X129431700Y-73269000D03*
%TO.N,/M4_CNTRL_2*%
X143828800Y-95915000D03*
%TO.N,/M1_CNTRL_1*%
X163167100Y-105868300D03*
X121785900Y-106579600D03*
X122032700Y-98592300D03*
%TO.N,/M3_OUT_2*%
X116118500Y-106972900D03*
X116118500Y-88241000D03*
%TO.N,/FAST_CHRG_CTRL*%
X147725400Y-95587000D03*
%TO.N,/M2_OUT_2*%
X137445300Y-107382700D03*
%TO.N,/M2_OUT_1*%
X133690000Y-98154000D03*
%TO.N,/CTRL_EXT_LOAD1*%
X130128400Y-104818900D03*
X126276900Y-78368600D03*
%TO.N,/M3_CNTRL_2*%
X164170000Y-96687500D03*
%TO.N,/M3_CNTRL_1*%
X158210000Y-99268400D03*
X157268300Y-90442900D03*
%TO.N,/3V3_Out *%
X145645000Y-69782700D03*
X145645000Y-57980700D03*
%TO.N,/M3_OUT_1*%
X129318400Y-104661500D03*
X117169300Y-86941000D03*
%TO.N,/M2_CNTRL_2*%
X122492600Y-102494000D03*
%TO.N,/M4_OUT_1*%
X117636100Y-90191000D03*
%TO.N,/EXT_LOAD1_OUT*%
X155812100Y-73635900D03*
%TO.N,/CTRL_EXT_LOAD2*%
X129308300Y-80182900D03*
%TO.N,/I2C1_SDA*%
X130504600Y-99158300D03*
X122139800Y-59220100D03*
X117126700Y-63950800D03*
%TO.N,Net-(J1-CC1)*%
X176075900Y-64869600D03*
X175664600Y-79407500D03*
%TO.N,/DP*%
X177050200Y-77396000D03*
X177227800Y-56346700D03*
%TO.N,/DM*%
X174173000Y-58662600D03*
X174173000Y-77896000D03*
%TO.N,Net-(J1-CC2)*%
X175075900Y-76396000D03*
X175075900Y-64897100D03*
%TO.N,+9V*%
X158047900Y-80695800D03*
X159396400Y-72018200D03*
%TO.N,Net-(JP17-A)*%
X170681700Y-98666400D03*
X170942500Y-91654800D03*
X171594900Y-93405000D03*
%TO.N,Net-(JP2-A)*%
X129749400Y-66804100D03*
X129749400Y-71503200D03*
%TO.N,+5V*%
X180603200Y-97506500D03*
X180603200Y-68382100D03*
X177719800Y-72990000D03*
%TO.N,Net-(JP5-B)*%
X143624500Y-82831700D03*
X143955400Y-76905200D03*
%TO.N,Net-(U2-VINT)*%
X126631100Y-104988700D03*
X122440500Y-99894000D03*
%TO.N,GND*%
X160478300Y-88980400D03*
X125629200Y-95931100D03*
X125629200Y-90100600D03*
X127646700Y-102263800D03*
X125675200Y-81713700D03*
X122784500Y-62370800D03*
X127472700Y-99049200D03*
D19*
X153070000Y-67500000D03*
X153070000Y-77500000D03*
X153070000Y-57500000D03*
%TD*%
D20*
%TO.N,Net-(U9-IN+)*%
X119221100Y-63523200D02*
X121907700Y-60836600D01*
X119221100Y-67283000D02*
X119221100Y-63523200D01*
%TO.N,Net-(U8-VBUS)*%
X177651900Y-69189500D02*
X179597300Y-71134900D01*
X177651900Y-62335700D02*
X177651900Y-69189500D01*
%TO.N,Net-(U6-FB)*%
X144972300Y-86667700D02*
X144972300Y-77000100D01*
%TO.N,Net-(U13-A)*%
X139323400Y-82930500D02*
X139323400Y-74857200D01*
X142433500Y-86040600D02*
X139323400Y-82930500D01*
%TO.N,/LOAD*%
X144282800Y-62717100D02*
X144282800Y-75219600D01*
X144573400Y-62426500D02*
X144282800Y-62717100D01*
X142734300Y-76768100D02*
X144282800Y-75219600D01*
X142734300Y-85490500D02*
X142734300Y-76768100D01*
X143035200Y-85791400D02*
X142734300Y-85490500D01*
X143035200Y-95094100D02*
X143035200Y-85791400D01*
X142734300Y-95395000D02*
X143035200Y-95094100D01*
X117170800Y-94866500D02*
X117170800Y-104456100D01*
X116937600Y-94633300D02*
X117170800Y-94866500D01*
%TO.N,/M4_CNTRL_1*%
X138102800Y-95951100D02*
X138102800Y-92221600D01*
X141310000Y-99158300D02*
X138102800Y-95951100D01*
X141310000Y-100310000D02*
X141310000Y-99158300D01*
%TO.N,/5V_OUT*%
X156550000Y-100310000D02*
X156550000Y-101461700D01*
X144299600Y-89589300D02*
X144299600Y-78627500D01*
X152740000Y-98029700D02*
X144299600Y-89589300D01*
X152740000Y-103282600D02*
X152740000Y-98029700D01*
X153503700Y-104046300D02*
X152740000Y-103282600D01*
X154476200Y-104046300D02*
X153503700Y-104046300D01*
X155398300Y-103124200D02*
X154476200Y-104046300D01*
X155398300Y-102325400D02*
X155398300Y-103124200D01*
X156262000Y-101461700D02*
X155398300Y-102325400D01*
X156550000Y-101461700D02*
X156262000Y-101461700D01*
%TO.N,/I2C1_SCL*%
X121848700Y-70779000D02*
X121848700Y-95118100D01*
X116537100Y-65467400D02*
X121848700Y-70779000D01*
X151470000Y-98226100D02*
X150533100Y-97289200D01*
X151470000Y-100310000D02*
X151470000Y-98226100D01*
%TO.N,/Battery*%
X163007000Y-82409200D02*
X170319900Y-89722100D01*
X163007000Y-69844000D02*
X163007000Y-82409200D01*
X163007000Y-69844000D02*
X163007000Y-53286000D01*
X148930000Y-100310000D02*
X148930000Y-99158300D01*
X170319900Y-96551900D02*
X168208600Y-98663200D01*
X170319900Y-89722100D02*
X170319900Y-96551900D01*
X148930000Y-99158300D02*
X148930000Y-98663200D01*
%TO.N,/M4_OUT_2*%
X117020700Y-92791300D02*
X117020700Y-88891000D01*
X122184800Y-97955400D02*
X117020700Y-92791300D01*
X122317100Y-97955400D02*
X122184800Y-97955400D01*
X122669600Y-98307900D02*
X122317100Y-97955400D01*
X122669600Y-98836900D02*
X122669600Y-98307900D01*
X125631200Y-101798500D02*
X122669600Y-98836900D01*
%TO.N,/EXT_LOAD2_OUT*%
X146390000Y-102850000D02*
X145238300Y-102850000D01*
X145238300Y-102562000D02*
X145238300Y-102850000D01*
X144374600Y-101698300D02*
X145238300Y-102562000D01*
X143574200Y-101698300D02*
X144374600Y-101698300D01*
X142687900Y-100812000D02*
X143574200Y-101698300D01*
X142687900Y-97866400D02*
X142687900Y-100812000D01*
X142132600Y-97311100D02*
X142687900Y-97866400D01*
X142132600Y-86655300D02*
X142132600Y-97311100D01*
X129431700Y-73954400D02*
X142132600Y-86655300D01*
X129431700Y-73269000D02*
X129431700Y-73954400D01*
%TO.N,/M4_CNTRL_2*%
X143850000Y-95936200D02*
X143828800Y-95915000D01*
X143850000Y-100310000D02*
X143850000Y-95936200D01*
%TO.N,/M1_CNTRL_1*%
X165558300Y-103477100D02*
X163167100Y-105868300D01*
X165558300Y-102325400D02*
X165558300Y-103477100D01*
X166422000Y-101461700D02*
X165558300Y-102325400D01*
X166710000Y-101461700D02*
X166422000Y-101461700D01*
X166710000Y-100310000D02*
X166710000Y-101461700D01*
X121785900Y-98839100D02*
X121785900Y-106579600D01*
X122032700Y-98592300D02*
X121785900Y-98839100D01*
%TO.N,/M3_OUT_2*%
X116118500Y-106972900D02*
X116118500Y-88241000D01*
%TO.N,/FAST_CHRG_CTRL*%
X148930000Y-102850000D02*
X148930000Y-101698300D01*
X147725400Y-100781600D02*
X147725400Y-95587000D01*
X148642100Y-101698300D02*
X147725400Y-100781600D01*
X148930000Y-101698300D02*
X148642100Y-101698300D01*
%TO.N,/M2_OUT_2*%
X137445300Y-102377000D02*
X137445300Y-107382700D01*
X136708200Y-101639900D02*
X137445300Y-102377000D01*
X134900100Y-101639900D02*
X136708200Y-101639900D01*
X133690000Y-102850000D02*
X134900100Y-101639900D01*
%TO.N,/M2_OUT_1*%
X133690000Y-100310000D02*
X133690000Y-98154000D01*
%TO.N,/CTRL_EXT_LOAD1*%
X130128400Y-99970100D02*
X130128400Y-104818900D01*
X129510300Y-99352000D02*
X130128400Y-99970100D01*
X129510300Y-98961300D02*
X129510300Y-99352000D01*
X126276900Y-95727900D02*
X129510300Y-98961300D01*
X126276900Y-78368600D02*
X126276900Y-95727900D01*
%TO.N,/M3_CNTRL_2*%
X164170000Y-100310000D02*
X164170000Y-96687500D01*
%TO.N,/M3_CNTRL_1*%
X158210000Y-91384600D02*
X158210000Y-99268400D01*
X157268300Y-90442900D02*
X158210000Y-91384600D01*
%TO.N,/3V3_Out *%
X154010000Y-100310000D02*
X154010000Y-99158300D01*
X145645000Y-69782700D02*
X145645000Y-57980700D01*
X145645000Y-90225400D02*
X145645000Y-69782700D01*
X154010000Y-98590400D02*
X145645000Y-90225400D01*
X154010000Y-99158300D02*
X154010000Y-98590400D01*
%TO.N,/M3_OUT_1*%
X119714500Y-89486200D02*
X117169300Y-86941000D01*
X119714500Y-94216800D02*
X119714500Y-89486200D01*
X127045000Y-101547300D02*
X119714500Y-94216800D01*
X127045000Y-102588800D02*
X127045000Y-101547300D01*
X129117700Y-104661500D02*
X127045000Y-102588800D01*
X129318400Y-104661500D02*
X129117700Y-104661500D01*
%TO.N,/M2_CNTRL_2*%
X127988400Y-107989800D02*
X122492600Y-102494000D01*
X137704100Y-107989800D02*
X127988400Y-107989800D01*
X139956500Y-105737400D02*
X137704100Y-107989800D01*
X139956500Y-102360300D02*
X139956500Y-105737400D01*
X139057900Y-101461700D02*
X139956500Y-102360300D01*
X138770000Y-101461700D02*
X139057900Y-101461700D01*
X138770000Y-100310000D02*
X138770000Y-101461700D01*
%TO.N,/M4_OUT_1*%
X136230000Y-102850000D02*
X135078300Y-102850000D01*
X117636100Y-92825900D02*
X117636100Y-90191000D01*
X122363900Y-97553700D02*
X117636100Y-92825900D01*
X122483400Y-97553700D02*
X122363900Y-97553700D01*
X123071300Y-98141600D02*
X122483400Y-97553700D01*
X123071300Y-98261100D02*
X123071300Y-98141600D01*
X126643300Y-101833100D02*
X123071300Y-98261100D01*
X126643300Y-102856300D02*
X126643300Y-101833100D01*
X129251700Y-105464700D02*
X126643300Y-102856300D01*
X133255400Y-105464700D02*
X129251700Y-105464700D01*
X135078300Y-103641800D02*
X133255400Y-105464700D01*
X135078300Y-102850000D02*
X135078300Y-103641800D01*
%TO.N,/EXT_LOAD1_OUT*%
X159090000Y-102850000D02*
X159090000Y-101698300D01*
X158802100Y-101698300D02*
X159090000Y-101698300D01*
X157769800Y-100666000D02*
X158802100Y-101698300D01*
X157769800Y-99828900D02*
X157769800Y-100666000D01*
X155812100Y-97871200D02*
X157769800Y-99828900D01*
X155812100Y-73635900D02*
X155812100Y-97871200D01*
%TO.N,/CTRL_EXT_LOAD2*%
X129308300Y-88946200D02*
X129308300Y-80182900D01*
X140158300Y-99796200D02*
X129308300Y-88946200D01*
X140158300Y-100834600D02*
X140158300Y-99796200D01*
X141022000Y-101698300D02*
X140158300Y-100834600D01*
X141310000Y-101698300D02*
X141022000Y-101698300D01*
X141310000Y-102850000D02*
X141310000Y-101698300D01*
%TO.N,/I2C1_SDA*%
X122139800Y-59220100D02*
X122139800Y-59424800D01*
X121652700Y-59424800D02*
X117126700Y-63950800D01*
X122139800Y-59424800D02*
X121652700Y-59424800D01*
X127662200Y-96315900D02*
X130504600Y-99158300D01*
X127662200Y-64947200D02*
X127662200Y-96315900D01*
X122139800Y-59424800D02*
X127662200Y-64947200D01*
%TO.N,Net-(J1-CC1)*%
X176075900Y-78996200D02*
X175664600Y-79407500D01*
X176075900Y-64869600D02*
X176075900Y-78996200D01*
%TO.N,/DP*%
X177050200Y-56524300D02*
X177050200Y-77396000D01*
X177227800Y-56346700D02*
X177050200Y-56524300D01*
%TO.N,/DM*%
X174173000Y-77896000D02*
X174173000Y-58662600D01*
%TO.N,Net-(J1-CC2)*%
X175075900Y-64897100D02*
X175075900Y-76396000D01*
%TO.N,+9V*%
X159090000Y-100310000D02*
X159090000Y-99158300D01*
X159396400Y-79347300D02*
X159396400Y-72018200D01*
X158047900Y-80695800D02*
X159396400Y-79347300D01*
X159090000Y-81737900D02*
X158047900Y-80695800D01*
X159090000Y-99158300D02*
X159090000Y-81737900D01*
%TO.N,Net-(JP17-A)*%
X170942500Y-93405000D02*
X171594900Y-93405000D01*
X170942500Y-98405600D02*
X170942500Y-93405000D01*
X170681700Y-98666400D02*
X170942500Y-98405600D01*
X170942500Y-93405000D02*
X170942500Y-91654800D01*
%TO.N,Net-(JP2-A)*%
X129749400Y-71503200D02*
X129749400Y-66804100D01*
%TO.N,+5V*%
X180603200Y-68382100D02*
X180603200Y-72990000D01*
X180603200Y-72990000D02*
X180603200Y-97506500D01*
X180603200Y-72990000D02*
X177719800Y-72990000D01*
%TO.N,Net-(JP5-B)*%
X143624500Y-77236100D02*
X143624500Y-82831700D01*
X143955400Y-76905200D02*
X143624500Y-77236100D01*
%TO.N,Net-(U2-VINT)*%
X122440600Y-99894000D02*
X122440500Y-99894000D01*
X122440600Y-100798200D02*
X122440600Y-99894000D01*
X126631100Y-104988700D02*
X122440600Y-100798200D01*
%TO.N,GND*%
X153070000Y-77500000D02*
X153070000Y-67500000D01*
X153070000Y-67500000D02*
X153070000Y-57500000D01*
X161630000Y-102850000D02*
X161630000Y-101698300D01*
X160478300Y-100834600D02*
X160478300Y-88980400D01*
X161342000Y-101698300D02*
X160478300Y-100834600D01*
X161630000Y-101698300D02*
X161342000Y-101698300D01*
X125629200Y-95931100D02*
X125629200Y-90100600D01*
X125629200Y-81759700D02*
X125629200Y-90100600D01*
X125675200Y-81713700D02*
X125629200Y-81759700D01*
X122784500Y-78823000D02*
X125675200Y-81713700D01*
X122784500Y-62370800D02*
X122784500Y-78823000D01*
X127646700Y-99223200D02*
X127472700Y-99049200D01*
X127646700Y-102263800D02*
X127646700Y-99223200D01*
X127472700Y-97774600D02*
X125629200Y-95931100D01*
X127472700Y-99049200D02*
X127472700Y-97774600D01*
%TD*%
%TA.AperFunction,Conductor*%
%TO.N,GND*%
G36*
X189875593Y-50500031D02*
G01*
X189942618Y-50519766D01*
X189988333Y-50572604D01*
X189999500Y-50624031D01*
X189999500Y-107875577D01*
X189979815Y-107942616D01*
X189927011Y-107988371D01*
X189875515Y-107999577D01*
X138836557Y-108005954D01*
X138769516Y-107986278D01*
X138723754Y-107933480D01*
X138713802Y-107864322D01*
X138742819Y-107800763D01*
X138748846Y-107794289D01*
X140437020Y-106106116D01*
X140516077Y-105969184D01*
X140557001Y-105816457D01*
X140557001Y-105658342D01*
X140557001Y-105650747D01*
X140557000Y-105650729D01*
X140557000Y-104184378D01*
X140576685Y-104117339D01*
X140629489Y-104071584D01*
X140698647Y-104061640D01*
X140737296Y-104073894D01*
X140791583Y-104101555D01*
X140791585Y-104101555D01*
X140791588Y-104101557D01*
X140993757Y-104167246D01*
X141203713Y-104200500D01*
X141203714Y-104200500D01*
X141416286Y-104200500D01*
X141416287Y-104200500D01*
X141626243Y-104167246D01*
X141828412Y-104101557D01*
X142017816Y-104005051D01*
X142063000Y-103972223D01*
X142189786Y-103880109D01*
X142189788Y-103880106D01*
X142189792Y-103880104D01*
X142340104Y-103729792D01*
X142340106Y-103729788D01*
X142340109Y-103729786D01*
X142465048Y-103557820D01*
X142465047Y-103557820D01*
X142465051Y-103557816D01*
X142469514Y-103549054D01*
X142517488Y-103498259D01*
X142585308Y-103481463D01*
X142651444Y-103503999D01*
X142690486Y-103549056D01*
X142694951Y-103557820D01*
X142819890Y-103729786D01*
X142970213Y-103880109D01*
X143142179Y-104005048D01*
X143142181Y-104005049D01*
X143142184Y-104005051D01*
X143331588Y-104101557D01*
X143533757Y-104167246D01*
X143743713Y-104200500D01*
X143743714Y-104200500D01*
X143956286Y-104200500D01*
X143956287Y-104200500D01*
X144166243Y-104167246D01*
X144368412Y-104101557D01*
X144557816Y-104005051D01*
X144603000Y-103972223D01*
X144729786Y-103880109D01*
X144729788Y-103880106D01*
X144729792Y-103880104D01*
X144880104Y-103729792D01*
X145005051Y-103557816D01*
X145009513Y-103549056D01*
X145057483Y-103498261D01*
X145125303Y-103481463D01*
X145191440Y-103503997D01*
X145230481Y-103549050D01*
X145234946Y-103557812D01*
X145234948Y-103557815D01*
X145359890Y-103729786D01*
X145510213Y-103880109D01*
X145682179Y-104005048D01*
X145682181Y-104005049D01*
X145682184Y-104005051D01*
X145871588Y-104101557D01*
X146073757Y-104167246D01*
X146283713Y-104200500D01*
X146283714Y-104200500D01*
X146496286Y-104200500D01*
X146496287Y-104200500D01*
X146706243Y-104167246D01*
X146908412Y-104101557D01*
X147097816Y-104005051D01*
X147143000Y-103972223D01*
X147269786Y-103880109D01*
X147269788Y-103880106D01*
X147269792Y-103880104D01*
X147420104Y-103729792D01*
X147420106Y-103729788D01*
X147420109Y-103729786D01*
X147545048Y-103557820D01*
X147545047Y-103557820D01*
X147545051Y-103557816D01*
X147549514Y-103549054D01*
X147597488Y-103498259D01*
X147665308Y-103481463D01*
X147731444Y-103503999D01*
X147770486Y-103549056D01*
X147774951Y-103557820D01*
X147899890Y-103729786D01*
X148050213Y-103880109D01*
X148222179Y-104005048D01*
X148222181Y-104005049D01*
X148222184Y-104005051D01*
X148411588Y-104101557D01*
X148613757Y-104167246D01*
X148823713Y-104200500D01*
X148823714Y-104200500D01*
X149036286Y-104200500D01*
X149036287Y-104200500D01*
X149246243Y-104167246D01*
X149448412Y-104101557D01*
X149637816Y-104005051D01*
X149683000Y-103972223D01*
X149809786Y-103880109D01*
X149809788Y-103880106D01*
X149809792Y-103880104D01*
X149960104Y-103729792D01*
X149960106Y-103729788D01*
X149960109Y-103729786D01*
X150085048Y-103557820D01*
X150085047Y-103557820D01*
X150085051Y-103557816D01*
X150089514Y-103549054D01*
X150137488Y-103498259D01*
X150205308Y-103481463D01*
X150271444Y-103503999D01*
X150310486Y-103549056D01*
X150314951Y-103557820D01*
X150439890Y-103729786D01*
X150590213Y-103880109D01*
X150762179Y-104005048D01*
X150762181Y-104005049D01*
X150762184Y-104005051D01*
X150951588Y-104101557D01*
X151153757Y-104167246D01*
X151363713Y-104200500D01*
X151363714Y-104200500D01*
X151576286Y-104200500D01*
X151576287Y-104200500D01*
X151786243Y-104167246D01*
X151988412Y-104101557D01*
X152177816Y-104005051D01*
X152344320Y-103884079D01*
X152410123Y-103860601D01*
X152478177Y-103876426D01*
X152504883Y-103896718D01*
X153018839Y-104410674D01*
X153018849Y-104410685D01*
X153023179Y-104415015D01*
X153023180Y-104415016D01*
X153134984Y-104526820D01*
X153216757Y-104574031D01*
X153271915Y-104605877D01*
X153424643Y-104646801D01*
X153424646Y-104646801D01*
X153590353Y-104646801D01*
X153590369Y-104646800D01*
X154389531Y-104646800D01*
X154389547Y-104646801D01*
X154397143Y-104646801D01*
X154555254Y-104646801D01*
X154555257Y-104646801D01*
X154707985Y-104605877D01*
X154763143Y-104574031D01*
X154844916Y-104526820D01*
X154956720Y-104415016D01*
X154956720Y-104415014D01*
X154966924Y-104404811D01*
X154966928Y-104404806D01*
X155493592Y-103878142D01*
X155554915Y-103844657D01*
X155624607Y-103849641D01*
X155666718Y-103876705D01*
X155666838Y-103876565D01*
X155667864Y-103877441D01*
X155668954Y-103878142D01*
X155670535Y-103879723D01*
X155670540Y-103879727D01*
X155842442Y-104004620D01*
X156031782Y-104101095D01*
X156233871Y-104166757D01*
X156300000Y-104177231D01*
X156300000Y-103283012D01*
X156357007Y-103315925D01*
X156484174Y-103350000D01*
X156615826Y-103350000D01*
X156742993Y-103315925D01*
X156800000Y-103283012D01*
X156800000Y-104177230D01*
X156866126Y-104166757D01*
X156866129Y-104166757D01*
X157068217Y-104101095D01*
X157257557Y-104004620D01*
X157429459Y-103879727D01*
X157429464Y-103879723D01*
X157579723Y-103729464D01*
X157579727Y-103729459D01*
X157704620Y-103557558D01*
X157709232Y-103548507D01*
X157757205Y-103497709D01*
X157825025Y-103480912D01*
X157891161Y-103503447D01*
X157930204Y-103548504D01*
X157934949Y-103557817D01*
X158059890Y-103729786D01*
X158210213Y-103880109D01*
X158382179Y-104005048D01*
X158382181Y-104005049D01*
X158382184Y-104005051D01*
X158571588Y-104101557D01*
X158773757Y-104167246D01*
X158983713Y-104200500D01*
X158983714Y-104200500D01*
X159196286Y-104200500D01*
X159196287Y-104200500D01*
X159406243Y-104167246D01*
X159608412Y-104101557D01*
X159797816Y-104005051D01*
X159843000Y-103972223D01*
X159969786Y-103880109D01*
X159969788Y-103880106D01*
X159969792Y-103880104D01*
X160120104Y-103729792D01*
X160120106Y-103729788D01*
X160120109Y-103729786D01*
X160245048Y-103557820D01*
X160245051Y-103557816D01*
X160249793Y-103548508D01*
X160297763Y-103497711D01*
X160365583Y-103480911D01*
X160431719Y-103503445D01*
X160470763Y-103548500D01*
X160475377Y-103557555D01*
X160600272Y-103729459D01*
X160600276Y-103729464D01*
X160750535Y-103879723D01*
X160750540Y-103879727D01*
X160922442Y-104004620D01*
X161111782Y-104101095D01*
X161313871Y-104166757D01*
X161380000Y-104177231D01*
X161380000Y-103283012D01*
X161437007Y-103315925D01*
X161564174Y-103350000D01*
X161695826Y-103350000D01*
X161822993Y-103315925D01*
X161880000Y-103283012D01*
X161880000Y-104177230D01*
X161946126Y-104166757D01*
X161946129Y-104166757D01*
X162148217Y-104101095D01*
X162337557Y-104004620D01*
X162509459Y-103879727D01*
X162509464Y-103879723D01*
X162659723Y-103729464D01*
X162659727Y-103729459D01*
X162784620Y-103557558D01*
X162789232Y-103548507D01*
X162837205Y-103497709D01*
X162905025Y-103480912D01*
X162971161Y-103503447D01*
X163010204Y-103548504D01*
X163014949Y-103557817D01*
X163139890Y-103729786D01*
X163290213Y-103880109D01*
X163462179Y-104005048D01*
X163462181Y-104005049D01*
X163462184Y-104005051D01*
X163490073Y-104019261D01*
X163651583Y-104101555D01*
X163651585Y-104101555D01*
X163651588Y-104101557D01*
X163785969Y-104145220D01*
X163843644Y-104184658D01*
X163870842Y-104249017D01*
X163858927Y-104317863D01*
X163835331Y-104350832D01*
X163152439Y-105033725D01*
X163091116Y-105067210D01*
X163088950Y-105067661D01*
X162933608Y-105098561D01*
X162933598Y-105098564D01*
X162787927Y-105158902D01*
X162787914Y-105158909D01*
X162656811Y-105246510D01*
X162656807Y-105246513D01*
X162545313Y-105358007D01*
X162545310Y-105358011D01*
X162457709Y-105489114D01*
X162457702Y-105489127D01*
X162397364Y-105634798D01*
X162397361Y-105634810D01*
X162366600Y-105789453D01*
X162366600Y-105947146D01*
X162397361Y-106101789D01*
X162397364Y-106101801D01*
X162457702Y-106247472D01*
X162457709Y-106247485D01*
X162545310Y-106378588D01*
X162545313Y-106378592D01*
X162656807Y-106490086D01*
X162656811Y-106490089D01*
X162787914Y-106577690D01*
X162787927Y-106577697D01*
X162891670Y-106620668D01*
X162933603Y-106638037D01*
X163088253Y-106668799D01*
X163088256Y-106668800D01*
X163088258Y-106668800D01*
X163245944Y-106668800D01*
X163245945Y-106668799D01*
X163400597Y-106638037D01*
X163546279Y-106577694D01*
X163677389Y-106490089D01*
X163788889Y-106378589D01*
X163876494Y-106247479D01*
X163936837Y-106101797D01*
X163958013Y-105995339D01*
X163967738Y-105946450D01*
X164000123Y-105884539D01*
X164001619Y-105883015D01*
X165857263Y-104027370D01*
X165918584Y-103993887D01*
X165988276Y-103998871D01*
X166001237Y-104004568D01*
X166002181Y-104005049D01*
X166002184Y-104005051D01*
X166191588Y-104101557D01*
X166393757Y-104167246D01*
X166603713Y-104200500D01*
X166603714Y-104200500D01*
X166816286Y-104200500D01*
X166816287Y-104200500D01*
X167026243Y-104167246D01*
X167228412Y-104101557D01*
X167417816Y-104005051D01*
X167463000Y-103972223D01*
X167589786Y-103880109D01*
X167589788Y-103880106D01*
X167589792Y-103880104D01*
X167740104Y-103729792D01*
X167740106Y-103729788D01*
X167740109Y-103729786D01*
X167865048Y-103557820D01*
X167865047Y-103557820D01*
X167865051Y-103557816D01*
X167869514Y-103549054D01*
X167917488Y-103498259D01*
X167985308Y-103481463D01*
X168051444Y-103503999D01*
X168090486Y-103549056D01*
X168094951Y-103557820D01*
X168219890Y-103729786D01*
X168370213Y-103880109D01*
X168542179Y-104005048D01*
X168542181Y-104005049D01*
X168542184Y-104005051D01*
X168731588Y-104101557D01*
X168933757Y-104167246D01*
X169143713Y-104200500D01*
X169143714Y-104200500D01*
X169356286Y-104200500D01*
X169356287Y-104200500D01*
X169566243Y-104167246D01*
X169768412Y-104101557D01*
X169957816Y-104005051D01*
X170003000Y-103972223D01*
X170129786Y-103880109D01*
X170129788Y-103880106D01*
X170129792Y-103880104D01*
X170280104Y-103729792D01*
X170280106Y-103729788D01*
X170280109Y-103729786D01*
X170405048Y-103557820D01*
X170405047Y-103557820D01*
X170405051Y-103557816D01*
X170409514Y-103549054D01*
X170457488Y-103498259D01*
X170525308Y-103481463D01*
X170591444Y-103503999D01*
X170630486Y-103549056D01*
X170634951Y-103557820D01*
X170759890Y-103729786D01*
X170910213Y-103880109D01*
X171082179Y-104005048D01*
X171082181Y-104005049D01*
X171082184Y-104005051D01*
X171271588Y-104101557D01*
X171473757Y-104167246D01*
X171683713Y-104200500D01*
X171683714Y-104200500D01*
X171896286Y-104200500D01*
X171896287Y-104200500D01*
X172106243Y-104167246D01*
X172308412Y-104101557D01*
X172497816Y-104005051D01*
X172543000Y-103972223D01*
X172669786Y-103880109D01*
X172669788Y-103880106D01*
X172669792Y-103880104D01*
X172820104Y-103729792D01*
X172820106Y-103729788D01*
X172820109Y-103729786D01*
X172945048Y-103557820D01*
X172945047Y-103557820D01*
X172945051Y-103557816D01*
X173041557Y-103368412D01*
X173107246Y-103166243D01*
X173140500Y-102956287D01*
X173140500Y-102743713D01*
X173107246Y-102533757D01*
X173041557Y-102331588D01*
X172945051Y-102142184D01*
X172945049Y-102142181D01*
X172945048Y-102142179D01*
X172820109Y-101970213D01*
X172669786Y-101819890D01*
X172497820Y-101694951D01*
X172489600Y-101690763D01*
X172489054Y-101690485D01*
X172438259Y-101642512D01*
X172421463Y-101574692D01*
X172443999Y-101508556D01*
X172489054Y-101469515D01*
X172497816Y-101465051D01*
X172540085Y-101434341D01*
X172669786Y-101340109D01*
X172669788Y-101340106D01*
X172669792Y-101340104D01*
X172820104Y-101189792D01*
X172820108Y-101189787D01*
X172820109Y-101189786D01*
X172945048Y-101017820D01*
X172945047Y-101017820D01*
X172945051Y-101017816D01*
X173041557Y-100828412D01*
X173107246Y-100626243D01*
X173140500Y-100416287D01*
X173140500Y-100203713D01*
X173107246Y-99993757D01*
X173041557Y-99791588D01*
X172945051Y-99602184D01*
X172945049Y-99602181D01*
X172945048Y-99602179D01*
X172820109Y-99430213D01*
X172669786Y-99279890D01*
X172497820Y-99154951D01*
X172308414Y-99058444D01*
X172308413Y-99058443D01*
X172308412Y-99058443D01*
X172106243Y-98992754D01*
X172106241Y-98992753D01*
X172106240Y-98992753D01*
X171939845Y-98966399D01*
X171896287Y-98959500D01*
X171683713Y-98959500D01*
X171607362Y-98971592D01*
X171581309Y-98968225D01*
X171555049Y-98968670D01*
X171547211Y-98963818D01*
X171538070Y-98962637D01*
X171517975Y-98945720D01*
X171495640Y-98931895D01*
X171491669Y-98923575D01*
X171484618Y-98917640D01*
X171476859Y-98892547D01*
X171465544Y-98868840D01*
X171465767Y-98856671D01*
X171463979Y-98850889D01*
X171464947Y-98833551D01*
X171465494Y-98829227D01*
X171482200Y-98745242D01*
X171482200Y-98697221D01*
X171483181Y-98689470D01*
X171491450Y-98670521D01*
X171498817Y-98643032D01*
X171502075Y-98637388D01*
X171502074Y-98637388D01*
X171502077Y-98637385D01*
X171543001Y-98484657D01*
X171543001Y-98326543D01*
X171543001Y-98318948D01*
X171543000Y-98318930D01*
X171543000Y-94329500D01*
X171562685Y-94262461D01*
X171615489Y-94216706D01*
X171667000Y-94205500D01*
X171673744Y-94205500D01*
X171673745Y-94205499D01*
X171828397Y-94174737D01*
X171974079Y-94114394D01*
X172105189Y-94026789D01*
X172216689Y-93915289D01*
X172304294Y-93784179D01*
X172364637Y-93638497D01*
X172395400Y-93483842D01*
X172395400Y-93326158D01*
X172395400Y-93326155D01*
X172395399Y-93326153D01*
X172383831Y-93267997D01*
X172364637Y-93171503D01*
X172357885Y-93155203D01*
X172304297Y-93025827D01*
X172304290Y-93025814D01*
X172216689Y-92894711D01*
X172216686Y-92894707D01*
X172105192Y-92783213D01*
X172105188Y-92783210D01*
X171974085Y-92695609D01*
X171974072Y-92695602D01*
X171828401Y-92635264D01*
X171828389Y-92635261D01*
X171673745Y-92604500D01*
X171673742Y-92604500D01*
X171667000Y-92604500D01*
X171658314Y-92601949D01*
X171649353Y-92603238D01*
X171625312Y-92592259D01*
X171599961Y-92584815D01*
X171594033Y-92577974D01*
X171585797Y-92574213D01*
X171571507Y-92551978D01*
X171554206Y-92532011D01*
X171551918Y-92521496D01*
X171548023Y-92515435D01*
X171543000Y-92480500D01*
X171543000Y-92234565D01*
X171562685Y-92167526D01*
X171563898Y-92165674D01*
X171651890Y-92033985D01*
X171651890Y-92033984D01*
X171651894Y-92033979D01*
X171712237Y-91888297D01*
X171743000Y-91733642D01*
X171743000Y-91575958D01*
X171743000Y-91575955D01*
X171742999Y-91575953D01*
X171718316Y-91451864D01*
X171712237Y-91421303D01*
X171652662Y-91277474D01*
X171651897Y-91275627D01*
X171651890Y-91275614D01*
X171564289Y-91144511D01*
X171564286Y-91144507D01*
X171452792Y-91033013D01*
X171452788Y-91033010D01*
X171321685Y-90945409D01*
X171321672Y-90945402D01*
X171176001Y-90885064D01*
X171175991Y-90885061D01*
X171020208Y-90854073D01*
X170958297Y-90821688D01*
X170923723Y-90760972D01*
X170920400Y-90732456D01*
X170920400Y-90301865D01*
X170940085Y-90234826D01*
X170941298Y-90232974D01*
X171029290Y-90101285D01*
X171029290Y-90101284D01*
X171029294Y-90101279D01*
X171089637Y-89955597D01*
X171120400Y-89800942D01*
X171120400Y-89643258D01*
X171120400Y-89643255D01*
X171120399Y-89643253D01*
X171093941Y-89510243D01*
X171089637Y-89488603D01*
X171064005Y-89426721D01*
X171029297Y-89342927D01*
X171029290Y-89342914D01*
X170941689Y-89211810D01*
X170830192Y-89100313D01*
X170830188Y-89100310D01*
X170699085Y-89012709D01*
X170699072Y-89012702D01*
X170553401Y-88952364D01*
X170553391Y-88952361D01*
X170398049Y-88921461D01*
X170336138Y-88889076D01*
X170334560Y-88887525D01*
X163643819Y-82196784D01*
X163610334Y-82135461D01*
X163607500Y-82109103D01*
X163607500Y-71264908D01*
X163627185Y-71197869D01*
X163671271Y-71159363D01*
X163670187Y-71157605D01*
X163676332Y-71153814D01*
X163676334Y-71153814D01*
X163825656Y-71061712D01*
X163949712Y-70937656D01*
X163989581Y-70873016D01*
X164041525Y-70826294D01*
X164110488Y-70815071D01*
X164174570Y-70842914D01*
X164182799Y-70850434D01*
X164290397Y-70958032D01*
X164430475Y-71059804D01*
X164584744Y-71138408D01*
X164749415Y-71191914D01*
X164749414Y-71191914D01*
X164756999Y-71193115D01*
X164757000Y-71193114D01*
X164757000Y-70124330D01*
X164776745Y-70144075D01*
X164862255Y-70193444D01*
X164957630Y-70219000D01*
X165056370Y-70219000D01*
X165151745Y-70193444D01*
X165237255Y-70144075D01*
X165257000Y-70124330D01*
X165257000Y-71193115D01*
X165264584Y-71191914D01*
X165429255Y-71138408D01*
X165583524Y-71059804D01*
X165723602Y-70958032D01*
X165846032Y-70835602D01*
X165947804Y-70695524D01*
X166026408Y-70541257D01*
X166079914Y-70376584D01*
X166107000Y-70205571D01*
X166107000Y-70094000D01*
X165287330Y-70094000D01*
X165307075Y-70074255D01*
X165356444Y-69988745D01*
X165382000Y-69893370D01*
X165382000Y-69794630D01*
X165356444Y-69699255D01*
X165307075Y-69613745D01*
X165287330Y-69594000D01*
X166107000Y-69594000D01*
X166107000Y-69482428D01*
X166079914Y-69311415D01*
X166026408Y-69146742D01*
X165947804Y-68992475D01*
X165846032Y-68852397D01*
X165723602Y-68729967D01*
X165583524Y-68628195D01*
X165429257Y-68549591D01*
X165264589Y-68496087D01*
X165264581Y-68496085D01*
X165257000Y-68494884D01*
X165257000Y-69563670D01*
X165237255Y-69543925D01*
X165151745Y-69494556D01*
X165056370Y-69469000D01*
X164957630Y-69469000D01*
X164862255Y-69494556D01*
X164776745Y-69543925D01*
X164757000Y-69563670D01*
X164757000Y-68494884D01*
X164756999Y-68494884D01*
X164749418Y-68496085D01*
X164749410Y-68496087D01*
X164584742Y-68549591D01*
X164430475Y-68628195D01*
X164290401Y-68729964D01*
X164182799Y-68837566D01*
X164121476Y-68871050D01*
X164051784Y-68866066D01*
X163995851Y-68824194D01*
X163989585Y-68814988D01*
X163949712Y-68750344D01*
X163825656Y-68626288D01*
X163676334Y-68534186D01*
X163676332Y-68534185D01*
X163670187Y-68530395D01*
X163671290Y-68528605D01*
X163626649Y-68489290D01*
X163607500Y-68423091D01*
X163607500Y-63005105D01*
X163627185Y-62938066D01*
X163679989Y-62892311D01*
X163749147Y-62882367D01*
X163812703Y-62911392D01*
X163846061Y-62957652D01*
X163894954Y-63075690D01*
X163894958Y-63075700D01*
X164026075Y-63302803D01*
X164185718Y-63510851D01*
X164185726Y-63510860D01*
X164371140Y-63696274D01*
X164371148Y-63696281D01*
X164371149Y-63696282D01*
X164398544Y-63717303D01*
X164579196Y-63855924D01*
X164806299Y-63987041D01*
X164806309Y-63987046D01*
X165048571Y-64087394D01*
X165048581Y-64087398D01*
X165301884Y-64155270D01*
X165548223Y-64187702D01*
X165561864Y-64189498D01*
X165561880Y-64189500D01*
X165561887Y-64189500D01*
X165824113Y-64189500D01*
X165824120Y-64189500D01*
X166084116Y-64155270D01*
X166337419Y-64087398D01*
X166556603Y-63996609D01*
X166579690Y-63987046D01*
X166579691Y-63987045D01*
X166579697Y-63987043D01*
X166806803Y-63855924D01*
X167014851Y-63696282D01*
X167014855Y-63696277D01*
X167014860Y-63696274D01*
X167200274Y-63510860D01*
X167200277Y-63510855D01*
X167200282Y-63510851D01*
X167359924Y-63302803D01*
X167491043Y-63075697D01*
X167591398Y-62833419D01*
X167659270Y-62580116D01*
X167693500Y-62320120D01*
X167693500Y-62057880D01*
X167659270Y-61797884D01*
X167591398Y-61544581D01*
X167571613Y-61496815D01*
X167491046Y-61302309D01*
X167491041Y-61302299D01*
X167359924Y-61075196D01*
X167200281Y-60867148D01*
X167200274Y-60867140D01*
X167014860Y-60681726D01*
X167014851Y-60681718D01*
X166961963Y-60641135D01*
X168642525Y-60641135D01*
X168642525Y-63736870D01*
X168642526Y-63736876D01*
X168648933Y-63796483D01*
X168699227Y-63931328D01*
X168699231Y-63931335D01*
X168785477Y-64046544D01*
X168785480Y-64046547D01*
X168900689Y-64132793D01*
X168900696Y-64132797D01*
X169035542Y-64183091D01*
X169035541Y-64183091D01*
X169042469Y-64183835D01*
X169095152Y-64189500D01*
X171690897Y-64189499D01*
X171750508Y-64183091D01*
X171885356Y-64132796D01*
X172000571Y-64046546D01*
X172086821Y-63931331D01*
X172137116Y-63796483D01*
X172143525Y-63736873D01*
X172143524Y-60641128D01*
X172137116Y-60581517D01*
X172114944Y-60522072D01*
X172086822Y-60446671D01*
X172086818Y-60446664D01*
X172000572Y-60331455D01*
X172000569Y-60331452D01*
X171885360Y-60245206D01*
X171885353Y-60245202D01*
X171750507Y-60194908D01*
X171750508Y-60194908D01*
X171690908Y-60188501D01*
X171690906Y-60188500D01*
X171690898Y-60188500D01*
X171690889Y-60188500D01*
X169095154Y-60188500D01*
X169095148Y-60188501D01*
X169035541Y-60194908D01*
X168900696Y-60245202D01*
X168900689Y-60245206D01*
X168785480Y-60331452D01*
X168785477Y-60331455D01*
X168699231Y-60446664D01*
X168699227Y-60446671D01*
X168648933Y-60581517D01*
X168647055Y-60598990D01*
X168642526Y-60641123D01*
X168642525Y-60641135D01*
X166961963Y-60641135D01*
X166806803Y-60522075D01*
X166579700Y-60390958D01*
X166579690Y-60390953D01*
X166337428Y-60290605D01*
X166337421Y-60290603D01*
X166337419Y-60290602D01*
X166084116Y-60222730D01*
X166026339Y-60215123D01*
X165824127Y-60188500D01*
X165824120Y-60188500D01*
X165561880Y-60188500D01*
X165561872Y-60188500D01*
X165330772Y-60218926D01*
X165301884Y-60222730D01*
X165048581Y-60290602D01*
X165048571Y-60290605D01*
X164806309Y-60390953D01*
X164806299Y-60390958D01*
X164579196Y-60522075D01*
X164371148Y-60681718D01*
X164185718Y-60867148D01*
X164026075Y-61075196D01*
X163894958Y-61302299D01*
X163894953Y-61302309D01*
X163846061Y-61420347D01*
X163802220Y-61474750D01*
X163735926Y-61496815D01*
X163668226Y-61479536D01*
X163620616Y-61428398D01*
X163607500Y-61372894D01*
X163607500Y-58583753D01*
X173372500Y-58583753D01*
X173372500Y-58741446D01*
X173403261Y-58896089D01*
X173403264Y-58896101D01*
X173463602Y-59041772D01*
X173463609Y-59041785D01*
X173551602Y-59173474D01*
X173572480Y-59240151D01*
X173572500Y-59242365D01*
X173572500Y-77316234D01*
X173552815Y-77383273D01*
X173551602Y-77385125D01*
X173463609Y-77516814D01*
X173463602Y-77516827D01*
X173403264Y-77662498D01*
X173403261Y-77662510D01*
X173372500Y-77817153D01*
X173372500Y-77974846D01*
X173403261Y-78129489D01*
X173403264Y-78129501D01*
X173463602Y-78275172D01*
X173463609Y-78275185D01*
X173551210Y-78406288D01*
X173551213Y-78406292D01*
X173662707Y-78517786D01*
X173662711Y-78517789D01*
X173793814Y-78605390D01*
X173793827Y-78605397D01*
X173939498Y-78665735D01*
X173939503Y-78665737D01*
X174094153Y-78696499D01*
X174094156Y-78696500D01*
X174094158Y-78696500D01*
X174251844Y-78696500D01*
X174251845Y-78696499D01*
X174406497Y-78665737D01*
X174552179Y-78605394D01*
X174683289Y-78517789D01*
X174794789Y-78406289D01*
X174882394Y-78275179D01*
X174942737Y-78129497D01*
X174973500Y-77974842D01*
X174973500Y-77817158D01*
X174973500Y-77817155D01*
X174973499Y-77817153D01*
X174959507Y-77746810D01*
X174942737Y-77662503D01*
X174912591Y-77589723D01*
X174882397Y-77516827D01*
X174882390Y-77516814D01*
X174794398Y-77385125D01*
X174788747Y-77367078D01*
X174778523Y-77351169D01*
X174774071Y-77320207D01*
X174773520Y-77318447D01*
X174773500Y-77316234D01*
X174773500Y-77303126D01*
X174793185Y-77236087D01*
X174845989Y-77190332D01*
X174915147Y-77180388D01*
X174921692Y-77181509D01*
X174997055Y-77196500D01*
X174997058Y-77196500D01*
X175154744Y-77196500D01*
X175154745Y-77196499D01*
X175309397Y-77165737D01*
X175309409Y-77165731D01*
X175315224Y-77163969D01*
X175316058Y-77166720D01*
X175373259Y-77160497D01*
X175435778Y-77191691D01*
X175471508Y-77251734D01*
X175475400Y-77282555D01*
X175475400Y-78536560D01*
X175455715Y-78603599D01*
X175402911Y-78649354D01*
X175398853Y-78651121D01*
X175285423Y-78698104D01*
X175285414Y-78698109D01*
X175154311Y-78785710D01*
X175154307Y-78785713D01*
X175042813Y-78897207D01*
X175042810Y-78897211D01*
X174955209Y-79028314D01*
X174955202Y-79028327D01*
X174894864Y-79173998D01*
X174894861Y-79174010D01*
X174864100Y-79328653D01*
X174864100Y-79486346D01*
X174894861Y-79640989D01*
X174894864Y-79641001D01*
X174955202Y-79786672D01*
X174955209Y-79786685D01*
X175042810Y-79917788D01*
X175042813Y-79917792D01*
X175154307Y-80029286D01*
X175154311Y-80029289D01*
X175285414Y-80116890D01*
X175285427Y-80116897D01*
X175431098Y-80177235D01*
X175431103Y-80177237D01*
X175585753Y-80207999D01*
X175585756Y-80208000D01*
X175585758Y-80208000D01*
X175743444Y-80208000D01*
X175743445Y-80207999D01*
X175898097Y-80177237D01*
X176043779Y-80116894D01*
X176174889Y-80029289D01*
X176286389Y-79917789D01*
X176373994Y-79786679D01*
X176434337Y-79640997D01*
X176465100Y-79486342D01*
X176465100Y-79486340D01*
X176465237Y-79485652D01*
X176486404Y-79437139D01*
X176492186Y-79429149D01*
X176556420Y-79364916D01*
X176623177Y-79249289D01*
X176635477Y-79227985D01*
X176676401Y-79075257D01*
X176676401Y-78917143D01*
X176676401Y-78909548D01*
X176676400Y-78909530D01*
X176676400Y-78288923D01*
X176696085Y-78221884D01*
X176748889Y-78176129D01*
X176818047Y-78166185D01*
X176824583Y-78167304D01*
X176865455Y-78175434D01*
X176971355Y-78196500D01*
X176971358Y-78196500D01*
X177129044Y-78196500D01*
X177129045Y-78196499D01*
X177283697Y-78165737D01*
X177429379Y-78105394D01*
X177560489Y-78017789D01*
X177671989Y-77906289D01*
X177759594Y-77775179D01*
X177771344Y-77746813D01*
X177781638Y-77721959D01*
X177819937Y-77629497D01*
X177850700Y-77474842D01*
X177850700Y-77317158D01*
X177850700Y-77317155D01*
X177850699Y-77317153D01*
X177825743Y-77191691D01*
X177819937Y-77162503D01*
X177796282Y-77105394D01*
X177759597Y-77016827D01*
X177759590Y-77016814D01*
X177671598Y-76885125D01*
X177650720Y-76818447D01*
X177650700Y-76816234D01*
X177650700Y-73914500D01*
X177670385Y-73847461D01*
X177723189Y-73801706D01*
X177774700Y-73790500D01*
X177798644Y-73790500D01*
X177798645Y-73790499D01*
X177953297Y-73759737D01*
X178098979Y-73699394D01*
X178175628Y-73648179D01*
X178230675Y-73611398D01*
X178297353Y-73590520D01*
X178299566Y-73590500D01*
X179878700Y-73590500D01*
X179945739Y-73610185D01*
X179991494Y-73662989D01*
X180002700Y-73714500D01*
X180002700Y-96926734D01*
X179983015Y-96993773D01*
X179981802Y-96995625D01*
X179893809Y-97127314D01*
X179893802Y-97127327D01*
X179833464Y-97272998D01*
X179833461Y-97273010D01*
X179802700Y-97427653D01*
X179802700Y-97585346D01*
X179833461Y-97739989D01*
X179833464Y-97740001D01*
X179893802Y-97885672D01*
X179893809Y-97885685D01*
X179981410Y-98016788D01*
X179981413Y-98016792D01*
X180092907Y-98128286D01*
X180092911Y-98128289D01*
X180224014Y-98215890D01*
X180224027Y-98215897D01*
X180369698Y-98276235D01*
X180369703Y-98276237D01*
X180515098Y-98305158D01*
X180524353Y-98306999D01*
X180524356Y-98307000D01*
X180524358Y-98307000D01*
X180682044Y-98307000D01*
X180682045Y-98306999D01*
X180836697Y-98276237D01*
X180982379Y-98215894D01*
X181113489Y-98128289D01*
X181224989Y-98016789D01*
X181312594Y-97885679D01*
X181318217Y-97872105D01*
X181336226Y-97828625D01*
X181372937Y-97739997D01*
X181403700Y-97585342D01*
X181403700Y-97427658D01*
X181403700Y-97427655D01*
X181403699Y-97427653D01*
X181396646Y-97392196D01*
X181372937Y-97273003D01*
X181341783Y-97197789D01*
X181312597Y-97127327D01*
X181312590Y-97127314D01*
X181224598Y-96995625D01*
X181203720Y-96928947D01*
X181203700Y-96926734D01*
X181203700Y-83024730D01*
X181223385Y-82957691D01*
X181276189Y-82911936D01*
X181345347Y-82901992D01*
X181408903Y-82931017D01*
X181430802Y-82955839D01*
X181511697Y-83076907D01*
X181511700Y-83076911D01*
X181644088Y-83209299D01*
X181644092Y-83209302D01*
X181799762Y-83313318D01*
X181799768Y-83313321D01*
X181799769Y-83313322D01*
X181972749Y-83384973D01*
X182156379Y-83421499D01*
X182156383Y-83421500D01*
X182156384Y-83421500D01*
X183443617Y-83421500D01*
X183443618Y-83421499D01*
X183627251Y-83384973D01*
X183800231Y-83313322D01*
X183955908Y-83209302D01*
X184088302Y-83076908D01*
X184192322Y-82921231D01*
X184263973Y-82748251D01*
X184300500Y-82564616D01*
X184300500Y-82377384D01*
X184300499Y-82377379D01*
X185619500Y-82377379D01*
X185619500Y-82564620D01*
X185656025Y-82748243D01*
X185656027Y-82748251D01*
X185727676Y-82921228D01*
X185727681Y-82921237D01*
X185831697Y-83076907D01*
X185831700Y-83076911D01*
X185964088Y-83209299D01*
X185964092Y-83209302D01*
X186119762Y-83313318D01*
X186119768Y-83313321D01*
X186119769Y-83313322D01*
X186292749Y-83384973D01*
X186476379Y-83421499D01*
X186476383Y-83421500D01*
X186476384Y-83421500D01*
X187463617Y-83421500D01*
X187463618Y-83421499D01*
X187647251Y-83384973D01*
X187820231Y-83313322D01*
X187975908Y-83209302D01*
X188108302Y-83076908D01*
X188212322Y-82921231D01*
X188283973Y-82748251D01*
X188320500Y-82564616D01*
X188320500Y-82377384D01*
X188283973Y-82193749D01*
X188212322Y-82020769D01*
X188212321Y-82020768D01*
X188212318Y-82020762D01*
X188108302Y-81865092D01*
X188108299Y-81865088D01*
X187975911Y-81732700D01*
X187975907Y-81732697D01*
X187820237Y-81628681D01*
X187820228Y-81628676D01*
X187647251Y-81557027D01*
X187647243Y-81557025D01*
X187463620Y-81520500D01*
X187463616Y-81520500D01*
X186476384Y-81520500D01*
X186476379Y-81520500D01*
X186292756Y-81557025D01*
X186292748Y-81557027D01*
X186119771Y-81628676D01*
X186119762Y-81628681D01*
X185964092Y-81732697D01*
X185964088Y-81732700D01*
X185831700Y-81865088D01*
X185831697Y-81865092D01*
X185727681Y-82020762D01*
X185727676Y-82020771D01*
X185656027Y-82193748D01*
X185656025Y-82193756D01*
X185619500Y-82377379D01*
X184300499Y-82377379D01*
X184263973Y-82193749D01*
X184192322Y-82020769D01*
X184192321Y-82020768D01*
X184192318Y-82020762D01*
X184088302Y-81865092D01*
X184088299Y-81865088D01*
X183955911Y-81732700D01*
X183955907Y-81732697D01*
X183800237Y-81628681D01*
X183800227Y-81628676D01*
X183742308Y-81604685D01*
X183687905Y-81560844D01*
X183665840Y-81494549D01*
X183683120Y-81426850D01*
X183702074Y-81402449D01*
X183730509Y-81374015D01*
X183802984Y-81248485D01*
X183840500Y-81108475D01*
X183840500Y-80963525D01*
X183802984Y-80823515D01*
X183774769Y-80774646D01*
X183730511Y-80697988D01*
X183730506Y-80697982D01*
X183628017Y-80595493D01*
X183628011Y-80595488D01*
X183502488Y-80523017D01*
X183502489Y-80523017D01*
X183491006Y-80519940D01*
X183362475Y-80485500D01*
X183217525Y-80485500D01*
X183088993Y-80519940D01*
X183077511Y-80523017D01*
X182951988Y-80595488D01*
X182951982Y-80595493D01*
X182849493Y-80697982D01*
X182849488Y-80697988D01*
X182777017Y-80823511D01*
X182777016Y-80823515D01*
X182739500Y-80963525D01*
X182739500Y-81108475D01*
X182777016Y-81248485D01*
X182826677Y-81334500D01*
X182843150Y-81402399D01*
X182820298Y-81468426D01*
X182765377Y-81511617D01*
X182719290Y-81520500D01*
X182156379Y-81520500D01*
X181972756Y-81557025D01*
X181972748Y-81557027D01*
X181799771Y-81628676D01*
X181799762Y-81628681D01*
X181644092Y-81732697D01*
X181644088Y-81732700D01*
X181511700Y-81865088D01*
X181511697Y-81865092D01*
X181430802Y-81986160D01*
X181377190Y-82030965D01*
X181307865Y-82039672D01*
X181244837Y-82009517D01*
X181208118Y-81950074D01*
X181203700Y-81917269D01*
X181203700Y-74374730D01*
X181223385Y-74307691D01*
X181276189Y-74261936D01*
X181345347Y-74251992D01*
X181408903Y-74281017D01*
X181430802Y-74305839D01*
X181511697Y-74426907D01*
X181511700Y-74426911D01*
X181644088Y-74559299D01*
X181644092Y-74559302D01*
X181799762Y-74663318D01*
X181799771Y-74663323D01*
X181838956Y-74679554D01*
X181972749Y-74734973D01*
X182156379Y-74771499D01*
X182156383Y-74771500D01*
X182156384Y-74771500D01*
X182719290Y-74771500D01*
X182786329Y-74791185D01*
X182832084Y-74843989D01*
X182842028Y-74913147D01*
X182826677Y-74957498D01*
X182777016Y-75043515D01*
X182739500Y-75183525D01*
X182739500Y-75328475D01*
X182767977Y-75434751D01*
X182777017Y-75468488D01*
X182849488Y-75594011D01*
X182849490Y-75594013D01*
X182849491Y-75594015D01*
X182951985Y-75696509D01*
X182951986Y-75696510D01*
X182951988Y-75696511D01*
X183077511Y-75768982D01*
X183077512Y-75768982D01*
X183077515Y-75768984D01*
X183217525Y-75806500D01*
X183217528Y-75806500D01*
X183362472Y-75806500D01*
X183362475Y-75806500D01*
X183502485Y-75768984D01*
X183628015Y-75696509D01*
X183730509Y-75594015D01*
X183802984Y-75468485D01*
X183840500Y-75328475D01*
X183840500Y-75183525D01*
X183802984Y-75043515D01*
X183740935Y-74936044D01*
X183730511Y-74917988D01*
X183730506Y-74917982D01*
X183702080Y-74889556D01*
X183668595Y-74828233D01*
X183673579Y-74758541D01*
X183715451Y-74702608D01*
X183742309Y-74687314D01*
X183800231Y-74663322D01*
X183955908Y-74559302D01*
X184088302Y-74426908D01*
X184192322Y-74271231D01*
X184263973Y-74098251D01*
X184300500Y-73914616D01*
X184300500Y-73727384D01*
X184300499Y-73727379D01*
X185619500Y-73727379D01*
X185619500Y-73914620D01*
X185656025Y-74098243D01*
X185656027Y-74098251D01*
X185727676Y-74271228D01*
X185727681Y-74271237D01*
X185831697Y-74426907D01*
X185831700Y-74426911D01*
X185964088Y-74559299D01*
X185964092Y-74559302D01*
X186119762Y-74663318D01*
X186119771Y-74663323D01*
X186158956Y-74679554D01*
X186292749Y-74734973D01*
X186476379Y-74771499D01*
X186476383Y-74771500D01*
X186476384Y-74771500D01*
X187463617Y-74771500D01*
X187463618Y-74771499D01*
X187647251Y-74734973D01*
X187820231Y-74663322D01*
X187975908Y-74559302D01*
X188108302Y-74426908D01*
X188212322Y-74271231D01*
X188283973Y-74098251D01*
X188320500Y-73914616D01*
X188320500Y-73727384D01*
X188283973Y-73543749D01*
X188212322Y-73370769D01*
X188212321Y-73370768D01*
X188212318Y-73370762D01*
X188108302Y-73215092D01*
X188108299Y-73215088D01*
X187975911Y-73082700D01*
X187975907Y-73082697D01*
X187820237Y-72978681D01*
X187820228Y-72978676D01*
X187647251Y-72907027D01*
X187647243Y-72907025D01*
X187463620Y-72870500D01*
X187463616Y-72870500D01*
X186476384Y-72870500D01*
X186476379Y-72870500D01*
X186292756Y-72907025D01*
X186292748Y-72907027D01*
X186119771Y-72978676D01*
X186119762Y-72978681D01*
X185964092Y-73082697D01*
X185964088Y-73082700D01*
X185831700Y-73215088D01*
X185831697Y-73215092D01*
X185727681Y-73370762D01*
X185727676Y-73370771D01*
X185656027Y-73543748D01*
X185656025Y-73543756D01*
X185619500Y-73727379D01*
X184300499Y-73727379D01*
X184263973Y-73543749D01*
X184192322Y-73370769D01*
X184192321Y-73370768D01*
X184192318Y-73370762D01*
X184088302Y-73215092D01*
X184088299Y-73215088D01*
X183955911Y-73082700D01*
X183955907Y-73082697D01*
X183800237Y-72978681D01*
X183800228Y-72978676D01*
X183627251Y-72907027D01*
X183627243Y-72907025D01*
X183443620Y-72870500D01*
X183443616Y-72870500D01*
X182156384Y-72870500D01*
X182156379Y-72870500D01*
X181972756Y-72907025D01*
X181972748Y-72907027D01*
X181799771Y-72978676D01*
X181799762Y-72978681D01*
X181644092Y-73082697D01*
X181644088Y-73082700D01*
X181511700Y-73215088D01*
X181511697Y-73215092D01*
X181430802Y-73336160D01*
X181377190Y-73380965D01*
X181307865Y-73389672D01*
X181244837Y-73359517D01*
X181208118Y-73300074D01*
X181203700Y-73267269D01*
X181203700Y-68961865D01*
X181223385Y-68894826D01*
X181224598Y-68892974D01*
X181312590Y-68761285D01*
X181312590Y-68761284D01*
X181312594Y-68761279D01*
X181372937Y-68615597D01*
X181403700Y-68460942D01*
X181403700Y-68303258D01*
X181403700Y-68303255D01*
X181403699Y-68303253D01*
X181372938Y-68148610D01*
X181372937Y-68148603D01*
X181372935Y-68148598D01*
X181312597Y-68002927D01*
X181312590Y-68002914D01*
X181224989Y-67871811D01*
X181224986Y-67871807D01*
X181113492Y-67760313D01*
X181113488Y-67760310D01*
X180982385Y-67672709D01*
X180982372Y-67672702D01*
X180836701Y-67612364D01*
X180836689Y-67612361D01*
X180682045Y-67581600D01*
X180682042Y-67581600D01*
X180524358Y-67581600D01*
X180524355Y-67581600D01*
X180369710Y-67612361D01*
X180369698Y-67612364D01*
X180224027Y-67672702D01*
X180224014Y-67672709D01*
X180092911Y-67760310D01*
X180092907Y-67760313D01*
X179981413Y-67871807D01*
X179981410Y-67871811D01*
X179893809Y-68002914D01*
X179893802Y-68002927D01*
X179833464Y-68148598D01*
X179833461Y-68148610D01*
X179802700Y-68303253D01*
X179802700Y-68460946D01*
X179833461Y-68615589D01*
X179833464Y-68615601D01*
X179893802Y-68761272D01*
X179893809Y-68761285D01*
X179981802Y-68892974D01*
X180002680Y-68959651D01*
X180002700Y-68961865D01*
X180002700Y-70250788D01*
X179983015Y-70317827D01*
X179930211Y-70363582D01*
X179861053Y-70373526D01*
X179852865Y-70372067D01*
X179841746Y-70369698D01*
X179830797Y-70365163D01*
X179676142Y-70334400D01*
X179676045Y-70334400D01*
X179673806Y-70333923D01*
X179643774Y-70317692D01*
X179613538Y-70301876D01*
X179612351Y-70300709D01*
X179612339Y-70300703D01*
X179612332Y-70300691D01*
X179611960Y-70300325D01*
X178288719Y-68977084D01*
X178255234Y-68915761D01*
X178252400Y-68889403D01*
X178252400Y-62915465D01*
X178272085Y-62848426D01*
X178273298Y-62846574D01*
X178361290Y-62714885D01*
X178361290Y-62714884D01*
X178361294Y-62714879D01*
X178421637Y-62569197D01*
X178452400Y-62414542D01*
X178452400Y-62256858D01*
X178452400Y-62256855D01*
X178452399Y-62256853D01*
X178421638Y-62102210D01*
X178421637Y-62102203D01*
X178421635Y-62102198D01*
X178361297Y-61956527D01*
X178361290Y-61956514D01*
X178273689Y-61825411D01*
X178273686Y-61825407D01*
X178162192Y-61713913D01*
X178162188Y-61713910D01*
X178031085Y-61626309D01*
X178031072Y-61626302D01*
X177885401Y-61565964D01*
X177885391Y-61565961D01*
X177750508Y-61539131D01*
X177688597Y-61506746D01*
X177654023Y-61446030D01*
X177650700Y-61417514D01*
X177650700Y-57093159D01*
X177670385Y-57026120D01*
X177705807Y-56990058D01*
X177738089Y-56968489D01*
X177849589Y-56856989D01*
X177937194Y-56725879D01*
X177997537Y-56580197D01*
X178028300Y-56425542D01*
X178028300Y-56267858D01*
X178028300Y-56267855D01*
X178028299Y-56267853D01*
X177997538Y-56113210D01*
X177997537Y-56113203D01*
X177997535Y-56113198D01*
X177937197Y-55967527D01*
X177937190Y-55967514D01*
X177849589Y-55836411D01*
X177849586Y-55836407D01*
X177738092Y-55724913D01*
X177738088Y-55724910D01*
X177606985Y-55637309D01*
X177606972Y-55637302D01*
X177461301Y-55576964D01*
X177461289Y-55576961D01*
X177306645Y-55546200D01*
X177306642Y-55546200D01*
X177148958Y-55546200D01*
X177148955Y-55546200D01*
X176994310Y-55576961D01*
X176994298Y-55576964D01*
X176848627Y-55637302D01*
X176848614Y-55637309D01*
X176717511Y-55724910D01*
X176717507Y-55724913D01*
X176606013Y-55836407D01*
X176606010Y-55836411D01*
X176518409Y-55967514D01*
X176518402Y-55967527D01*
X176458064Y-56113198D01*
X176458061Y-56113210D01*
X176427300Y-56267853D01*
X176427300Y-56425544D01*
X176447316Y-56526167D01*
X176449699Y-56550357D01*
X176449699Y-56603357D01*
X176449699Y-56603359D01*
X176449700Y-56613353D01*
X176449700Y-63976676D01*
X176430015Y-64043715D01*
X176377211Y-64089470D01*
X176308053Y-64099414D01*
X176301509Y-64098293D01*
X176154746Y-64069100D01*
X176154742Y-64069100D01*
X175997058Y-64069100D01*
X175997055Y-64069100D01*
X175842410Y-64099861D01*
X175842398Y-64099864D01*
X175696727Y-64160202D01*
X175696709Y-64160212D01*
X175624211Y-64208654D01*
X175557534Y-64229532D01*
X175490154Y-64211047D01*
X175486430Y-64208654D01*
X175455084Y-64187709D01*
X175455081Y-64187707D01*
X175455079Y-64187706D01*
X175455076Y-64187704D01*
X175455071Y-64187702D01*
X175309401Y-64127364D01*
X175309389Y-64127361D01*
X175154745Y-64096600D01*
X175154742Y-64096600D01*
X174997058Y-64096600D01*
X174921690Y-64111591D01*
X174852099Y-64105362D01*
X174796922Y-64062499D01*
X174773678Y-63996609D01*
X174773500Y-63989973D01*
X174773500Y-59242365D01*
X174793185Y-59175326D01*
X174794398Y-59173474D01*
X174815928Y-59141253D01*
X174882394Y-59041779D01*
X174942737Y-58896097D01*
X174973500Y-58741442D01*
X174973500Y-58583758D01*
X174973500Y-58583755D01*
X174973499Y-58583753D01*
X174968426Y-58558251D01*
X174942737Y-58429103D01*
X174914061Y-58359872D01*
X174882397Y-58283427D01*
X174882390Y-58283414D01*
X174794789Y-58152311D01*
X174794786Y-58152307D01*
X174683292Y-58040813D01*
X174683288Y-58040810D01*
X174552185Y-57953209D01*
X174552172Y-57953202D01*
X174406501Y-57892864D01*
X174406489Y-57892861D01*
X174251845Y-57862100D01*
X174251842Y-57862100D01*
X174094158Y-57862100D01*
X174094155Y-57862100D01*
X173939510Y-57892861D01*
X173939498Y-57892864D01*
X173793827Y-57953202D01*
X173793814Y-57953209D01*
X173662711Y-58040810D01*
X173662707Y-58040813D01*
X173551213Y-58152307D01*
X173551210Y-58152311D01*
X173463609Y-58283414D01*
X173463602Y-58283427D01*
X173403264Y-58429098D01*
X173403261Y-58429110D01*
X173372500Y-58583753D01*
X163607500Y-58583753D01*
X163607500Y-53865765D01*
X163627185Y-53798726D01*
X163628398Y-53796874D01*
X163716390Y-53665185D01*
X163716390Y-53665184D01*
X163716394Y-53665179D01*
X163776737Y-53519497D01*
X163807500Y-53364842D01*
X163807500Y-53207158D01*
X163807500Y-53207155D01*
X163807499Y-53207153D01*
X163776738Y-53052510D01*
X163776737Y-53052503D01*
X163727697Y-52934108D01*
X163716397Y-52906827D01*
X163716390Y-52906814D01*
X163628789Y-52775711D01*
X163628786Y-52775707D01*
X163517292Y-52664213D01*
X163517288Y-52664210D01*
X163386185Y-52576609D01*
X163386172Y-52576602D01*
X163240501Y-52516264D01*
X163240489Y-52516261D01*
X163085845Y-52485500D01*
X163085842Y-52485500D01*
X162928158Y-52485500D01*
X162928155Y-52485500D01*
X162773510Y-52516261D01*
X162773498Y-52516264D01*
X162627827Y-52576602D01*
X162627814Y-52576609D01*
X162496711Y-52664210D01*
X162496707Y-52664213D01*
X162385213Y-52775707D01*
X162385210Y-52775711D01*
X162297609Y-52906814D01*
X162297602Y-52906827D01*
X162237264Y-53052498D01*
X162237261Y-53052510D01*
X162206500Y-53207153D01*
X162206500Y-53364846D01*
X162237261Y-53519489D01*
X162237264Y-53519501D01*
X162297602Y-53665172D01*
X162297609Y-53665185D01*
X162385602Y-53796874D01*
X162406480Y-53863551D01*
X162406500Y-53865765D01*
X162406500Y-60500614D01*
X162386815Y-60567653D01*
X162334011Y-60613408D01*
X162264853Y-60623352D01*
X162207014Y-60598990D01*
X162106778Y-60522076D01*
X162106773Y-60522072D01*
X161879675Y-60390958D01*
X161879665Y-60390953D01*
X161637403Y-60290605D01*
X161637396Y-60290603D01*
X161637394Y-60290602D01*
X161384091Y-60222730D01*
X161326314Y-60215123D01*
X161124102Y-60188500D01*
X161124095Y-60188500D01*
X160861855Y-60188500D01*
X160861847Y-60188500D01*
X160630747Y-60218926D01*
X160601859Y-60222730D01*
X160348556Y-60290602D01*
X160348546Y-60290605D01*
X160106284Y-60390953D01*
X160106274Y-60390958D01*
X159879171Y-60522075D01*
X159671123Y-60681718D01*
X159485693Y-60867148D01*
X159326050Y-61075196D01*
X159194933Y-61302299D01*
X159194928Y-61302309D01*
X159094580Y-61544571D01*
X159094577Y-61544581D01*
X159048349Y-61717109D01*
X159026705Y-61797885D01*
X158992475Y-62057872D01*
X158992475Y-62320127D01*
X159006684Y-62428046D01*
X159026705Y-62580116D01*
X159087273Y-62806159D01*
X159094577Y-62833418D01*
X159094580Y-62833428D01*
X159194928Y-63075690D01*
X159194933Y-63075700D01*
X159326050Y-63302803D01*
X159485693Y-63510851D01*
X159485701Y-63510860D01*
X159671115Y-63696274D01*
X159671123Y-63696281D01*
X159671124Y-63696282D01*
X159698519Y-63717303D01*
X159879171Y-63855924D01*
X160106274Y-63987041D01*
X160106284Y-63987046D01*
X160348546Y-64087394D01*
X160348556Y-64087398D01*
X160601859Y-64155270D01*
X160848198Y-64187702D01*
X160861839Y-64189498D01*
X160861855Y-64189500D01*
X160861862Y-64189500D01*
X161124088Y-64189500D01*
X161124095Y-64189500D01*
X161384091Y-64155270D01*
X161637394Y-64087398D01*
X161856578Y-63996609D01*
X161879665Y-63987046D01*
X161879666Y-63987045D01*
X161879672Y-63987043D01*
X162106778Y-63855924D01*
X162207014Y-63779009D01*
X162272182Y-63753815D01*
X162340627Y-63767853D01*
X162390617Y-63816666D01*
X162406500Y-63877385D01*
X162406500Y-68423091D01*
X162386815Y-68490130D01*
X162342731Y-68528641D01*
X162343813Y-68530395D01*
X162337667Y-68534185D01*
X162337666Y-68534186D01*
X162239419Y-68594784D01*
X162188342Y-68626289D01*
X162064289Y-68750342D01*
X161972187Y-68899663D01*
X161972185Y-68899668D01*
X161958567Y-68940765D01*
X161917001Y-69066203D01*
X161917001Y-69066204D01*
X161917000Y-69066204D01*
X161906500Y-69168983D01*
X161906500Y-70519001D01*
X161906501Y-70519018D01*
X161917000Y-70621796D01*
X161917001Y-70621799D01*
X161942896Y-70699943D01*
X161972186Y-70788334D01*
X162064288Y-70937656D01*
X162188344Y-71061712D01*
X162337666Y-71153814D01*
X162337667Y-71153814D01*
X162343813Y-71157605D01*
X162342706Y-71159399D01*
X162387337Y-71198687D01*
X162406500Y-71264908D01*
X162406500Y-82322530D01*
X162406499Y-82322548D01*
X162406499Y-82488254D01*
X162406498Y-82488254D01*
X162426960Y-82564620D01*
X162447423Y-82640985D01*
X162447984Y-82641956D01*
X162448001Y-82641986D01*
X162448003Y-82641989D01*
X162526477Y-82777912D01*
X162526481Y-82777917D01*
X162645349Y-82896785D01*
X162645355Y-82896790D01*
X169485325Y-89736760D01*
X169518810Y-89798083D01*
X169519261Y-89800249D01*
X169550161Y-89955591D01*
X169550164Y-89955601D01*
X169610502Y-90101272D01*
X169610509Y-90101285D01*
X169698502Y-90232974D01*
X169719380Y-90299651D01*
X169719400Y-90301865D01*
X169719400Y-96251803D01*
X169699715Y-96318842D01*
X169683081Y-96339484D01*
X168193939Y-97828625D01*
X168132616Y-97862110D01*
X168130450Y-97862561D01*
X167975108Y-97893461D01*
X167975098Y-97893464D01*
X167829427Y-97953802D01*
X167829414Y-97953809D01*
X167698311Y-98041410D01*
X167698307Y-98041413D01*
X167586813Y-98152907D01*
X167586810Y-98152911D01*
X167499209Y-98284014D01*
X167499202Y-98284027D01*
X167438864Y-98429698D01*
X167438861Y-98429710D01*
X167408100Y-98584353D01*
X167408100Y-98742046D01*
X167438861Y-98896689D01*
X167438863Y-98896697D01*
X167451455Y-98927096D01*
X167458923Y-98996566D01*
X167427647Y-99059045D01*
X167367558Y-99094697D01*
X167297733Y-99092202D01*
X167280598Y-99085033D01*
X167228414Y-99058444D01*
X167228413Y-99058443D01*
X167228412Y-99058443D01*
X167026243Y-98992754D01*
X167026241Y-98992753D01*
X167026240Y-98992753D01*
X166859845Y-98966399D01*
X166816287Y-98959500D01*
X166603713Y-98959500D01*
X166560155Y-98966399D01*
X166393760Y-98992753D01*
X166191585Y-99058444D01*
X166002179Y-99154951D01*
X165830213Y-99279890D01*
X165679890Y-99430213D01*
X165554949Y-99602182D01*
X165550484Y-99610946D01*
X165502509Y-99661742D01*
X165434688Y-99678536D01*
X165368553Y-99655998D01*
X165329516Y-99610946D01*
X165325050Y-99602182D01*
X165200109Y-99430213D01*
X165049786Y-99279890D01*
X164877815Y-99154948D01*
X164877814Y-99154947D01*
X164838205Y-99134765D01*
X164787409Y-99086791D01*
X164770500Y-99024281D01*
X164770500Y-97267265D01*
X164790185Y-97200226D01*
X164791398Y-97198374D01*
X164879390Y-97066685D01*
X164879390Y-97066684D01*
X164879394Y-97066679D01*
X164883938Y-97055710D01*
X164902456Y-97011002D01*
X164939737Y-96920997D01*
X164970500Y-96766342D01*
X164970500Y-96608658D01*
X164970500Y-96608655D01*
X164970499Y-96608653D01*
X164939737Y-96454003D01*
X164930466Y-96431620D01*
X164879397Y-96308327D01*
X164879390Y-96308314D01*
X164791789Y-96177211D01*
X164791786Y-96177207D01*
X164680292Y-96065713D01*
X164680288Y-96065710D01*
X164549185Y-95978109D01*
X164549172Y-95978102D01*
X164403501Y-95917764D01*
X164403489Y-95917761D01*
X164248845Y-95887000D01*
X164248842Y-95887000D01*
X164091158Y-95887000D01*
X164091155Y-95887000D01*
X163936510Y-95917761D01*
X163936498Y-95917764D01*
X163790827Y-95978102D01*
X163790814Y-95978109D01*
X163659711Y-96065710D01*
X163659707Y-96065713D01*
X163548213Y-96177207D01*
X163548210Y-96177211D01*
X163460609Y-96308314D01*
X163460602Y-96308327D01*
X163400264Y-96453998D01*
X163400261Y-96454010D01*
X163369500Y-96608653D01*
X163369500Y-96766346D01*
X163400261Y-96920989D01*
X163400264Y-96921001D01*
X163460602Y-97066672D01*
X163460609Y-97066685D01*
X163548602Y-97198374D01*
X163569480Y-97265051D01*
X163569500Y-97267265D01*
X163569500Y-99024281D01*
X163549815Y-99091320D01*
X163501795Y-99134765D01*
X163462185Y-99154947D01*
X163462184Y-99154948D01*
X163290213Y-99279890D01*
X163139890Y-99430213D01*
X163014949Y-99602182D01*
X163010484Y-99610946D01*
X162962509Y-99661742D01*
X162894688Y-99678536D01*
X162828553Y-99655998D01*
X162789516Y-99610946D01*
X162785050Y-99602182D01*
X162660109Y-99430213D01*
X162509786Y-99279890D01*
X162337820Y-99154951D01*
X162148414Y-99058444D01*
X162148413Y-99058443D01*
X162148412Y-99058443D01*
X161946243Y-98992754D01*
X161946241Y-98992753D01*
X161946240Y-98992753D01*
X161779845Y-98966399D01*
X161736287Y-98959500D01*
X161523713Y-98959500D01*
X161480155Y-98966399D01*
X161313760Y-98992753D01*
X161111585Y-99058444D01*
X160922179Y-99154951D01*
X160750213Y-99279890D01*
X160599890Y-99430213D01*
X160474949Y-99602182D01*
X160470484Y-99610946D01*
X160422509Y-99661742D01*
X160354688Y-99678536D01*
X160288553Y-99655998D01*
X160249516Y-99610946D01*
X160245050Y-99602182D01*
X160120109Y-99430213D01*
X159969786Y-99279890D01*
X159797815Y-99154948D01*
X159797814Y-99154947D01*
X159758205Y-99134765D01*
X159707409Y-99086791D01*
X159690500Y-99024281D01*
X159690500Y-81826959D01*
X159690501Y-81826946D01*
X159690501Y-81658845D01*
X159690501Y-81658843D01*
X159649577Y-81506115D01*
X159591310Y-81405194D01*
X159570520Y-81369184D01*
X159458716Y-81257380D01*
X159458713Y-81257378D01*
X158984815Y-80783480D01*
X158951330Y-80722157D01*
X158956314Y-80652465D01*
X158984811Y-80608123D01*
X159754906Y-79838027D01*
X159754911Y-79838024D01*
X159765114Y-79827820D01*
X159765116Y-79827820D01*
X159876920Y-79716016D01*
X159940186Y-79606435D01*
X159955977Y-79579085D01*
X159996901Y-79426357D01*
X159996901Y-79268243D01*
X159996901Y-79260648D01*
X159996900Y-79260630D01*
X159996900Y-72597965D01*
X160016585Y-72530926D01*
X160017798Y-72529074D01*
X160037717Y-72499264D01*
X160105794Y-72397379D01*
X160166137Y-72251697D01*
X160196900Y-72097042D01*
X160196900Y-71939358D01*
X160196900Y-71939355D01*
X160196899Y-71939353D01*
X160196113Y-71935400D01*
X160166137Y-71784703D01*
X160146254Y-71736701D01*
X160105797Y-71639027D01*
X160105790Y-71639014D01*
X160018189Y-71507911D01*
X160018186Y-71507907D01*
X159906692Y-71396413D01*
X159906688Y-71396410D01*
X159775585Y-71308809D01*
X159775572Y-71308802D01*
X159629901Y-71248464D01*
X159629889Y-71248461D01*
X159475245Y-71217700D01*
X159475242Y-71217700D01*
X159317558Y-71217700D01*
X159317555Y-71217700D01*
X159162910Y-71248461D01*
X159162898Y-71248464D01*
X159017227Y-71308802D01*
X159017214Y-71308809D01*
X158886111Y-71396410D01*
X158886107Y-71396413D01*
X158774613Y-71507907D01*
X158774610Y-71507911D01*
X158687009Y-71639014D01*
X158687002Y-71639027D01*
X158626664Y-71784698D01*
X158626661Y-71784710D01*
X158595900Y-71939353D01*
X158595900Y-72097046D01*
X158626661Y-72251689D01*
X158626664Y-72251701D01*
X158687002Y-72397372D01*
X158687009Y-72397385D01*
X158775002Y-72529074D01*
X158795880Y-72595751D01*
X158795900Y-72597965D01*
X158795900Y-79047203D01*
X158776215Y-79114242D01*
X158759581Y-79134884D01*
X158033239Y-79861225D01*
X157971916Y-79894710D01*
X157969750Y-79895161D01*
X157814408Y-79926061D01*
X157814398Y-79926064D01*
X157668727Y-79986402D01*
X157668714Y-79986409D01*
X157537611Y-80074010D01*
X157537607Y-80074013D01*
X157426113Y-80185507D01*
X157426110Y-80185511D01*
X157338509Y-80316614D01*
X157338502Y-80316627D01*
X157278164Y-80462298D01*
X157278161Y-80462310D01*
X157247400Y-80616953D01*
X157247400Y-80774646D01*
X157278161Y-80929289D01*
X157278164Y-80929301D01*
X157338502Y-81074972D01*
X157338509Y-81074985D01*
X157426110Y-81206088D01*
X157426113Y-81206092D01*
X157537607Y-81317586D01*
X157537611Y-81317589D01*
X157668714Y-81405190D01*
X157668727Y-81405197D01*
X157814398Y-81465535D01*
X157814403Y-81465537D01*
X157869563Y-81476509D01*
X157969749Y-81496438D01*
X158031660Y-81528823D01*
X158033239Y-81530374D01*
X158453181Y-81950316D01*
X158486666Y-82011639D01*
X158489500Y-82037997D01*
X158489500Y-90515503D01*
X158483261Y-90536748D01*
X158481682Y-90558837D01*
X158473609Y-90569620D01*
X158469815Y-90582542D01*
X158453081Y-90597041D01*
X158439810Y-90614770D01*
X158427189Y-90619477D01*
X158417011Y-90628297D01*
X158395093Y-90631448D01*
X158374346Y-90639187D01*
X158361185Y-90636324D01*
X158347853Y-90638241D01*
X158327709Y-90629041D01*
X158306073Y-90624335D01*
X158288347Y-90611066D01*
X158284297Y-90609216D01*
X158277819Y-90603184D01*
X158102874Y-90428239D01*
X158069389Y-90366916D01*
X158068938Y-90364749D01*
X158043094Y-90234826D01*
X158038037Y-90209403D01*
X157997755Y-90112153D01*
X157977697Y-90063727D01*
X157977690Y-90063714D01*
X157890089Y-89932611D01*
X157890086Y-89932607D01*
X157778592Y-89821113D01*
X157778588Y-89821110D01*
X157647485Y-89733509D01*
X157647472Y-89733502D01*
X157501801Y-89673164D01*
X157501789Y-89673161D01*
X157347145Y-89642400D01*
X157347142Y-89642400D01*
X157189458Y-89642400D01*
X157189455Y-89642400D01*
X157034810Y-89673161D01*
X157034798Y-89673164D01*
X156889127Y-89733502D01*
X156889114Y-89733509D01*
X156758011Y-89821110D01*
X156758007Y-89821113D01*
X156646513Y-89932607D01*
X156646509Y-89932612D01*
X156639700Y-89942803D01*
X156586087Y-89987606D01*
X156516762Y-89996312D01*
X156453735Y-89966155D01*
X156417017Y-89906711D01*
X156412600Y-89873909D01*
X156412600Y-74215665D01*
X156432285Y-74148626D01*
X156433498Y-74146774D01*
X156465926Y-74098243D01*
X156521494Y-74015079D01*
X156581837Y-73869397D01*
X156612600Y-73714742D01*
X156612600Y-73557058D01*
X156612600Y-73557055D01*
X156612599Y-73557053D01*
X156581838Y-73402410D01*
X156581837Y-73402403D01*
X156559238Y-73347844D01*
X156521497Y-73256727D01*
X156521490Y-73256714D01*
X156433889Y-73125611D01*
X156433886Y-73125607D01*
X156322392Y-73014113D01*
X156322388Y-73014110D01*
X156191285Y-72926509D01*
X156191272Y-72926502D01*
X156045601Y-72866164D01*
X156045589Y-72866161D01*
X155890945Y-72835400D01*
X155890942Y-72835400D01*
X155733258Y-72835400D01*
X155733255Y-72835400D01*
X155578610Y-72866161D01*
X155578598Y-72866164D01*
X155432927Y-72926502D01*
X155432914Y-72926509D01*
X155301811Y-73014110D01*
X155301807Y-73014113D01*
X155190313Y-73125607D01*
X155190310Y-73125611D01*
X155102709Y-73256714D01*
X155102702Y-73256727D01*
X155042364Y-73402398D01*
X155042361Y-73402410D01*
X155011600Y-73557053D01*
X155011600Y-73714746D01*
X155042361Y-73869389D01*
X155042364Y-73869401D01*
X155102702Y-74015072D01*
X155102709Y-74015085D01*
X155190702Y-74146774D01*
X155211580Y-74213451D01*
X155211600Y-74215665D01*
X155211600Y-97784530D01*
X155211599Y-97784548D01*
X155211599Y-97950254D01*
X155211598Y-97950254D01*
X155211599Y-97950257D01*
X155252523Y-98102985D01*
X155252524Y-98102987D01*
X155252523Y-98102987D01*
X155269273Y-98131997D01*
X155269275Y-98131999D01*
X155269276Y-98132001D01*
X155283196Y-98156111D01*
X155331579Y-98239915D01*
X155450449Y-98358785D01*
X155450455Y-98358790D01*
X155989419Y-98897754D01*
X156022904Y-98959077D01*
X156017920Y-99028769D01*
X155976048Y-99084702D01*
X155958034Y-99095919D01*
X155842182Y-99154949D01*
X155670213Y-99279890D01*
X155519890Y-99430213D01*
X155394949Y-99602182D01*
X155390484Y-99610946D01*
X155342509Y-99661742D01*
X155274688Y-99678536D01*
X155208553Y-99655998D01*
X155169516Y-99610946D01*
X155165050Y-99602182D01*
X155040109Y-99430213D01*
X154889786Y-99279890D01*
X154717815Y-99154948D01*
X154717814Y-99154947D01*
X154678205Y-99134765D01*
X154627409Y-99086791D01*
X154610500Y-99024281D01*
X154610500Y-98511343D01*
X154607102Y-98498664D01*
X154607101Y-98498658D01*
X154600718Y-98474835D01*
X154598936Y-98468184D01*
X154569577Y-98358616D01*
X154550329Y-98325277D01*
X154490524Y-98221690D01*
X154490521Y-98221686D01*
X154490520Y-98221684D01*
X154378716Y-98109880D01*
X154378715Y-98109879D01*
X154374385Y-98105549D01*
X154374374Y-98105539D01*
X146281819Y-90012984D01*
X146248334Y-89951661D01*
X146245500Y-89925303D01*
X146245500Y-70362465D01*
X146265185Y-70295426D01*
X146266398Y-70293574D01*
X146354390Y-70161885D01*
X146354390Y-70161884D01*
X146354394Y-70161879D01*
X146414737Y-70016197D01*
X146445500Y-69861542D01*
X146445500Y-69703858D01*
X146445500Y-69703855D01*
X146445499Y-69703853D01*
X146427575Y-69613745D01*
X146414737Y-69549203D01*
X146381516Y-69469000D01*
X146354397Y-69403527D01*
X146354390Y-69403514D01*
X146266398Y-69271825D01*
X146245520Y-69205147D01*
X146245500Y-69202934D01*
X146245500Y-58560465D01*
X146265185Y-58493426D01*
X146266398Y-58491574D01*
X146354390Y-58359885D01*
X146354390Y-58359884D01*
X146354394Y-58359879D01*
X146414737Y-58214197D01*
X146445500Y-58059542D01*
X146445500Y-57901858D01*
X146445500Y-57901855D01*
X146445499Y-57901853D01*
X146443710Y-57892861D01*
X146414737Y-57747203D01*
X146414735Y-57747198D01*
X146354397Y-57601527D01*
X146354390Y-57601514D01*
X146266789Y-57470411D01*
X146266786Y-57470407D01*
X146155292Y-57358913D01*
X146155288Y-57358910D01*
X146024185Y-57271309D01*
X146024172Y-57271302D01*
X145878501Y-57210964D01*
X145878489Y-57210961D01*
X145723845Y-57180200D01*
X145723842Y-57180200D01*
X145566158Y-57180200D01*
X145566155Y-57180200D01*
X145411510Y-57210961D01*
X145411498Y-57210964D01*
X145265827Y-57271302D01*
X145265814Y-57271309D01*
X145134711Y-57358910D01*
X145134707Y-57358913D01*
X145023213Y-57470407D01*
X145023210Y-57470411D01*
X144935609Y-57601514D01*
X144935602Y-57601527D01*
X144875264Y-57747198D01*
X144875261Y-57747210D01*
X144844500Y-57901853D01*
X144844500Y-58059546D01*
X144875261Y-58214189D01*
X144875264Y-58214201D01*
X144935602Y-58359872D01*
X144935609Y-58359885D01*
X145023602Y-58491574D01*
X145044480Y-58558251D01*
X145044500Y-58560465D01*
X145044500Y-61569602D01*
X145024815Y-61636641D01*
X144972011Y-61682396D01*
X144902853Y-61692340D01*
X144873048Y-61684163D01*
X144806901Y-61656764D01*
X144806889Y-61656761D01*
X144652245Y-61626000D01*
X144652242Y-61626000D01*
X144494558Y-61626000D01*
X144494555Y-61626000D01*
X144339910Y-61656761D01*
X144339898Y-61656764D01*
X144194227Y-61717102D01*
X144194214Y-61717109D01*
X144063111Y-61804710D01*
X144063107Y-61804713D01*
X143951613Y-61916207D01*
X143951610Y-61916211D01*
X143864009Y-62047314D01*
X143864002Y-62047327D01*
X143803664Y-62192998D01*
X143803661Y-62193010D01*
X143772900Y-62347653D01*
X143772900Y-62366046D01*
X143756287Y-62428046D01*
X143723224Y-62485311D01*
X143723223Y-62485315D01*
X143682299Y-62638043D01*
X143682299Y-62638045D01*
X143682299Y-62806146D01*
X143682300Y-62806159D01*
X143682300Y-74639834D01*
X143662615Y-74706873D01*
X143661402Y-74708725D01*
X143573409Y-74840414D01*
X143573402Y-74840427D01*
X143513064Y-74986098D01*
X143513061Y-74986108D01*
X143482162Y-75141448D01*
X143449777Y-75203359D01*
X143448226Y-75204937D01*
X142368655Y-76284508D01*
X142368648Y-76284515D01*
X142365586Y-76287578D01*
X142365584Y-76287580D01*
X142253780Y-76399384D01*
X142230029Y-76440523D01*
X142174723Y-76536315D01*
X142133799Y-76689043D01*
X142133799Y-76689045D01*
X142133799Y-76857146D01*
X142133800Y-76857159D01*
X142133800Y-84592302D01*
X142114115Y-84659341D01*
X142061311Y-84705096D01*
X141992153Y-84715040D01*
X141928597Y-84686015D01*
X141922119Y-84679983D01*
X139960219Y-82718083D01*
X139926734Y-82656760D01*
X139923900Y-82630402D01*
X139923900Y-75436965D01*
X139943585Y-75369926D01*
X139944798Y-75368074D01*
X140032790Y-75236385D01*
X140032790Y-75236384D01*
X140032794Y-75236379D01*
X140093137Y-75090697D01*
X140123900Y-74936042D01*
X140123900Y-74778358D01*
X140123900Y-74778355D01*
X140123899Y-74778353D01*
X140115270Y-74734972D01*
X140093137Y-74623703D01*
X140093135Y-74623698D01*
X140032797Y-74478027D01*
X140032790Y-74478014D01*
X139945189Y-74346911D01*
X139945186Y-74346907D01*
X139833692Y-74235413D01*
X139833688Y-74235410D01*
X139702585Y-74147809D01*
X139702572Y-74147802D01*
X139556901Y-74087464D01*
X139556889Y-74087461D01*
X139402245Y-74056700D01*
X139402242Y-74056700D01*
X139244558Y-74056700D01*
X139244555Y-74056700D01*
X139089910Y-74087461D01*
X139089898Y-74087464D01*
X138944227Y-74147802D01*
X138944214Y-74147809D01*
X138813111Y-74235410D01*
X138813107Y-74235413D01*
X138701613Y-74346907D01*
X138701610Y-74346911D01*
X138614009Y-74478014D01*
X138614002Y-74478027D01*
X138553664Y-74623698D01*
X138553661Y-74623710D01*
X138522900Y-74778353D01*
X138522900Y-74936046D01*
X138553661Y-75090689D01*
X138553664Y-75090701D01*
X138614002Y-75236372D01*
X138614009Y-75236385D01*
X138702002Y-75368074D01*
X138722880Y-75434751D01*
X138722900Y-75436965D01*
X138722900Y-82097003D01*
X138703215Y-82164042D01*
X138650411Y-82209797D01*
X138581253Y-82219741D01*
X138517697Y-82190716D01*
X138511219Y-82184684D01*
X130146409Y-73819874D01*
X130112924Y-73758551D01*
X130117908Y-73688859D01*
X130130986Y-73663305D01*
X130141094Y-73648179D01*
X130201437Y-73502497D01*
X130232200Y-73347842D01*
X130232200Y-73190158D01*
X130232200Y-73190155D01*
X130232199Y-73190153D01*
X130210825Y-73082700D01*
X130201437Y-73035503D01*
X130177901Y-72978681D01*
X130141097Y-72889827D01*
X130141090Y-72889814D01*
X130053489Y-72758711D01*
X130053486Y-72758707D01*
X129941992Y-72647213D01*
X129941988Y-72647210D01*
X129810885Y-72559609D01*
X129810872Y-72559602D01*
X129769005Y-72542261D01*
X129714601Y-72498421D01*
X129692536Y-72432127D01*
X129709815Y-72364427D01*
X129760952Y-72316816D01*
X129816457Y-72303700D01*
X129828244Y-72303700D01*
X129828245Y-72303699D01*
X129982897Y-72272937D01*
X130128579Y-72212594D01*
X130259689Y-72124989D01*
X130371189Y-72013489D01*
X130458794Y-71882379D01*
X130519137Y-71736697D01*
X130549900Y-71582042D01*
X130549900Y-71424358D01*
X130549900Y-71424355D01*
X130549899Y-71424353D01*
X130538769Y-71368401D01*
X130519137Y-71269703D01*
X130497597Y-71217700D01*
X130458797Y-71124027D01*
X130458790Y-71124014D01*
X130370798Y-70992325D01*
X130349920Y-70925647D01*
X130349900Y-70923434D01*
X130349900Y-67383865D01*
X130369585Y-67316826D01*
X130370798Y-67314974D01*
X130458790Y-67183285D01*
X130458790Y-67183284D01*
X130458794Y-67183279D01*
X130519137Y-67037597D01*
X130549900Y-66882942D01*
X130549900Y-66725258D01*
X130549900Y-66725255D01*
X130549899Y-66725253D01*
X130519138Y-66570610D01*
X130519137Y-66570603D01*
X130519135Y-66570598D01*
X130458797Y-66424927D01*
X130458790Y-66424914D01*
X130371189Y-66293811D01*
X130371186Y-66293807D01*
X130259692Y-66182313D01*
X130259688Y-66182310D01*
X130128585Y-66094709D01*
X130128572Y-66094702D01*
X129982901Y-66034364D01*
X129982889Y-66034361D01*
X129828245Y-66003600D01*
X129828242Y-66003600D01*
X129670558Y-66003600D01*
X129670555Y-66003600D01*
X129515910Y-66034361D01*
X129515898Y-66034364D01*
X129370227Y-66094702D01*
X129370214Y-66094709D01*
X129239111Y-66182310D01*
X129239107Y-66182313D01*
X129127613Y-66293807D01*
X129127610Y-66293811D01*
X129040009Y-66424914D01*
X129040002Y-66424927D01*
X128979664Y-66570598D01*
X128979661Y-66570610D01*
X128948900Y-66725253D01*
X128948900Y-66882946D01*
X128979661Y-67037589D01*
X128979664Y-67037601D01*
X129040002Y-67183272D01*
X129040009Y-67183285D01*
X129128002Y-67314974D01*
X129148880Y-67381651D01*
X129148900Y-67383865D01*
X129148900Y-70923434D01*
X129129215Y-70990473D01*
X129128002Y-70992325D01*
X129040009Y-71124014D01*
X129040002Y-71124027D01*
X128979664Y-71269698D01*
X128979661Y-71269710D01*
X128948900Y-71424353D01*
X128948900Y-71582046D01*
X128979661Y-71736689D01*
X128979664Y-71736701D01*
X129040002Y-71882372D01*
X129040009Y-71882385D01*
X129127610Y-72013488D01*
X129127613Y-72013492D01*
X129239107Y-72124986D01*
X129239111Y-72124989D01*
X129370214Y-72212590D01*
X129370227Y-72212597D01*
X129412095Y-72229939D01*
X129466499Y-72273779D01*
X129488564Y-72340073D01*
X129471285Y-72407773D01*
X129420148Y-72455384D01*
X129364643Y-72468500D01*
X129352855Y-72468500D01*
X129198210Y-72499261D01*
X129198198Y-72499264D01*
X129052527Y-72559602D01*
X129052514Y-72559609D01*
X128921411Y-72647210D01*
X128921407Y-72647213D01*
X128809913Y-72758707D01*
X128809910Y-72758711D01*
X128722309Y-72889814D01*
X128722302Y-72889827D01*
X128661964Y-73035498D01*
X128661961Y-73035510D01*
X128631200Y-73190153D01*
X128631200Y-73347846D01*
X128661961Y-73502489D01*
X128661964Y-73502501D01*
X128722302Y-73648172D01*
X128722309Y-73648185D01*
X128810302Y-73779874D01*
X128815952Y-73797920D01*
X128826177Y-73813830D01*
X128830628Y-73844789D01*
X128831180Y-73846551D01*
X128831200Y-73848765D01*
X128831200Y-73867730D01*
X128831199Y-73867748D01*
X128831199Y-74033454D01*
X128831198Y-74033454D01*
X128872124Y-74186189D01*
X128872125Y-74186190D01*
X128887237Y-74212364D01*
X128887238Y-74212365D01*
X128942274Y-74307691D01*
X128951181Y-74323117D01*
X129070049Y-74441985D01*
X129070055Y-74441990D01*
X141495781Y-86867716D01*
X141529266Y-86929039D01*
X141532100Y-86955397D01*
X141532100Y-97224430D01*
X141532099Y-97224448D01*
X141532099Y-97390154D01*
X141532098Y-97390154D01*
X141573023Y-97542885D01*
X141595618Y-97582019D01*
X141595619Y-97582023D01*
X141652075Y-97679809D01*
X141652079Y-97679814D01*
X141652080Y-97679816D01*
X141763884Y-97791620D01*
X141763885Y-97791621D01*
X141922521Y-97950257D01*
X142051081Y-98078816D01*
X142084566Y-98140139D01*
X142087400Y-98166497D01*
X142087400Y-98841022D01*
X142067715Y-98908061D01*
X142014911Y-98953816D01*
X141945753Y-98963760D01*
X141882197Y-98934735D01*
X141856013Y-98903021D01*
X141790524Y-98789590D01*
X141790518Y-98789582D01*
X138739619Y-95738683D01*
X138706134Y-95677360D01*
X138703300Y-95651002D01*
X138703300Y-92801365D01*
X138722985Y-92734326D01*
X138724198Y-92732474D01*
X138748831Y-92695609D01*
X138812194Y-92600779D01*
X138818807Y-92584815D01*
X138872535Y-92455101D01*
X138872537Y-92455097D01*
X138903300Y-92300442D01*
X138903300Y-92142758D01*
X138903300Y-92142755D01*
X138903299Y-92142753D01*
X138872537Y-91988103D01*
X138831198Y-91888301D01*
X138812197Y-91842427D01*
X138812190Y-91842414D01*
X138724589Y-91711311D01*
X138724586Y-91711307D01*
X138613092Y-91599813D01*
X138613088Y-91599810D01*
X138481985Y-91512209D01*
X138481972Y-91512202D01*
X138336301Y-91451864D01*
X138336289Y-91451861D01*
X138181645Y-91421100D01*
X138181642Y-91421100D01*
X138023958Y-91421100D01*
X138023955Y-91421100D01*
X137869310Y-91451861D01*
X137869298Y-91451864D01*
X137723627Y-91512202D01*
X137723614Y-91512209D01*
X137592511Y-91599810D01*
X137592507Y-91599813D01*
X137481013Y-91711307D01*
X137481010Y-91711311D01*
X137393409Y-91842414D01*
X137393402Y-91842427D01*
X137333064Y-91988098D01*
X137333061Y-91988110D01*
X137302300Y-92142753D01*
X137302300Y-92300446D01*
X137333061Y-92455089D01*
X137333064Y-92455101D01*
X137393402Y-92600772D01*
X137393409Y-92600785D01*
X137481402Y-92732474D01*
X137502280Y-92799151D01*
X137502300Y-92801365D01*
X137502300Y-95872039D01*
X137502299Y-95872043D01*
X137502299Y-95955742D01*
X137502299Y-95991603D01*
X137482614Y-96058642D01*
X137429810Y-96104397D01*
X137369345Y-96113090D01*
X137360652Y-96114340D01*
X137360651Y-96114339D01*
X137360651Y-96114340D01*
X137337255Y-96103655D01*
X137297096Y-96085315D01*
X137290618Y-96079283D01*
X129945119Y-88733784D01*
X129911634Y-88672461D01*
X129908800Y-88646103D01*
X129908800Y-80762665D01*
X129928485Y-80695626D01*
X129929698Y-80693774D01*
X130017690Y-80562085D01*
X130017690Y-80562084D01*
X130017694Y-80562079D01*
X130078037Y-80416397D01*
X130108800Y-80261742D01*
X130108800Y-80104058D01*
X130108800Y-80104055D01*
X130108799Y-80104053D01*
X130085397Y-79986406D01*
X130078037Y-79949403D01*
X130068369Y-79926061D01*
X130017697Y-79803727D01*
X130017690Y-79803714D01*
X129930089Y-79672611D01*
X129930086Y-79672607D01*
X129818592Y-79561113D01*
X129818588Y-79561110D01*
X129687485Y-79473509D01*
X129687472Y-79473502D01*
X129541801Y-79413164D01*
X129541789Y-79413161D01*
X129387145Y-79382400D01*
X129387142Y-79382400D01*
X129229458Y-79382400D01*
X129229455Y-79382400D01*
X129074810Y-79413161D01*
X129074798Y-79413164D01*
X128929127Y-79473502D01*
X128929114Y-79473509D01*
X128798011Y-79561110D01*
X128798007Y-79561113D01*
X128686513Y-79672607D01*
X128686510Y-79672611D01*
X128598909Y-79803714D01*
X128598902Y-79803727D01*
X128538564Y-79949398D01*
X128538561Y-79949408D01*
X128510700Y-80089476D01*
X128510700Y-80089478D01*
X128507800Y-80104058D01*
X128507800Y-80261742D01*
X128510700Y-80276321D01*
X128510700Y-80276324D01*
X128538561Y-80416389D01*
X128538564Y-80416401D01*
X128598902Y-80562072D01*
X128598909Y-80562085D01*
X128686902Y-80693774D01*
X128707780Y-80760451D01*
X128707800Y-80762665D01*
X128707800Y-88859530D01*
X128707799Y-88859548D01*
X128707799Y-89025254D01*
X128707798Y-89025254D01*
X128734391Y-89124497D01*
X128748723Y-89177985D01*
X128768253Y-89211811D01*
X128807937Y-89280547D01*
X128827779Y-89314915D01*
X128946649Y-89433785D01*
X128946655Y-89433790D01*
X138349818Y-98836953D01*
X138383303Y-98898276D01*
X138378319Y-98967968D01*
X138336447Y-99023901D01*
X138300457Y-99042564D01*
X138291179Y-99045579D01*
X138251583Y-99058444D01*
X138062179Y-99154951D01*
X137890213Y-99279890D01*
X137739890Y-99430213D01*
X137614949Y-99602182D01*
X137610484Y-99610946D01*
X137562509Y-99661742D01*
X137494688Y-99678536D01*
X137428553Y-99655998D01*
X137389516Y-99610946D01*
X137385050Y-99602182D01*
X137260109Y-99430213D01*
X137109786Y-99279890D01*
X136937820Y-99154951D01*
X136748414Y-99058444D01*
X136748413Y-99058443D01*
X136748412Y-99058443D01*
X136546243Y-98992754D01*
X136546241Y-98992753D01*
X136546240Y-98992753D01*
X136379845Y-98966399D01*
X136336287Y-98959500D01*
X136123713Y-98959500D01*
X136080155Y-98966399D01*
X135913760Y-98992753D01*
X135711585Y-99058444D01*
X135522179Y-99154951D01*
X135350213Y-99279890D01*
X135199890Y-99430213D01*
X135074949Y-99602182D01*
X135070484Y-99610946D01*
X135022509Y-99661742D01*
X134954688Y-99678536D01*
X134888553Y-99655998D01*
X134849516Y-99610946D01*
X134845050Y-99602182D01*
X134720109Y-99430213D01*
X134569786Y-99279890D01*
X134397815Y-99154948D01*
X134397814Y-99154947D01*
X134358205Y-99134765D01*
X134307409Y-99086791D01*
X134290500Y-99024281D01*
X134290500Y-98733765D01*
X134310185Y-98666726D01*
X134311398Y-98664874D01*
X134399390Y-98533185D01*
X134399390Y-98533184D01*
X134399394Y-98533179D01*
X134459737Y-98387497D01*
X134490500Y-98232842D01*
X134490500Y-98075158D01*
X134490500Y-98075155D01*
X134490499Y-98075153D01*
X134478890Y-98016792D01*
X134459737Y-97920503D01*
X134436477Y-97864347D01*
X134399397Y-97774827D01*
X134399390Y-97774814D01*
X134311789Y-97643711D01*
X134311786Y-97643707D01*
X134200292Y-97532213D01*
X134200288Y-97532210D01*
X134069185Y-97444609D01*
X134069172Y-97444602D01*
X133923501Y-97384264D01*
X133923489Y-97384261D01*
X133768845Y-97353500D01*
X133768842Y-97353500D01*
X133611158Y-97353500D01*
X133611155Y-97353500D01*
X133456510Y-97384261D01*
X133456498Y-97384264D01*
X133310827Y-97444602D01*
X133310814Y-97444609D01*
X133179711Y-97532210D01*
X133179707Y-97532213D01*
X133068213Y-97643707D01*
X133068210Y-97643711D01*
X132980609Y-97774814D01*
X132980602Y-97774827D01*
X132920264Y-97920498D01*
X132920261Y-97920510D01*
X132889500Y-98075153D01*
X132889500Y-98232846D01*
X132920261Y-98387489D01*
X132920264Y-98387501D01*
X132980602Y-98533172D01*
X132980609Y-98533185D01*
X133068602Y-98664874D01*
X133089480Y-98731551D01*
X133089500Y-98733765D01*
X133089500Y-99024281D01*
X133069815Y-99091320D01*
X133021795Y-99134765D01*
X132982185Y-99154947D01*
X132982184Y-99154948D01*
X132810213Y-99279890D01*
X132659890Y-99430213D01*
X132534951Y-99602179D01*
X132438444Y-99791585D01*
X132372753Y-99993760D01*
X132339500Y-100203713D01*
X132339500Y-100416286D01*
X132372753Y-100626239D01*
X132438444Y-100828414D01*
X132534951Y-101017820D01*
X132659890Y-101189786D01*
X132773430Y-101303326D01*
X132806915Y-101364649D01*
X132801931Y-101434341D01*
X132760059Y-101490274D01*
X132729083Y-101507189D01*
X132597669Y-101556203D01*
X132597664Y-101556206D01*
X132482455Y-101642452D01*
X132482452Y-101642455D01*
X132396206Y-101757664D01*
X132396202Y-101757671D01*
X132345908Y-101892517D01*
X132339501Y-101952116D01*
X132339500Y-101952135D01*
X132339500Y-103747870D01*
X132339501Y-103747876D01*
X132345908Y-103807483D01*
X132396202Y-103942328D01*
X132396206Y-103942335D01*
X132482452Y-104057544D01*
X132482455Y-104057547D01*
X132597664Y-104143793D01*
X132597671Y-104143797D01*
X132732517Y-104194091D01*
X132732516Y-104194091D01*
X132739444Y-104194835D01*
X132792127Y-104200500D01*
X133371003Y-104200499D01*
X133438041Y-104220183D01*
X133483796Y-104272987D01*
X133493740Y-104342146D01*
X133464715Y-104405702D01*
X133458683Y-104412180D01*
X133042984Y-104827881D01*
X132981661Y-104861366D01*
X132955303Y-104864200D01*
X131052900Y-104864200D01*
X130985861Y-104844515D01*
X130940106Y-104791711D01*
X130930172Y-104746051D01*
X130929497Y-104746118D01*
X130928925Y-104740319D01*
X130928900Y-104740200D01*
X130928900Y-104740055D01*
X130928899Y-104740053D01*
X130918863Y-104689601D01*
X130898137Y-104585403D01*
X130877237Y-104534946D01*
X130837797Y-104439727D01*
X130837790Y-104439714D01*
X130749798Y-104308025D01*
X130728920Y-104241347D01*
X130728900Y-104239134D01*
X130728900Y-100014701D01*
X130748585Y-99947662D01*
X130801389Y-99901907D01*
X130805448Y-99900140D01*
X130883772Y-99867697D01*
X130883772Y-99867696D01*
X130883779Y-99867694D01*
X131014889Y-99780089D01*
X131126389Y-99668589D01*
X131213994Y-99537479D01*
X131274337Y-99391797D01*
X131305100Y-99237142D01*
X131305100Y-99079458D01*
X131305100Y-99079455D01*
X131305099Y-99079453D01*
X131300920Y-99058443D01*
X131274337Y-98924803D01*
X131260976Y-98892547D01*
X131213997Y-98779127D01*
X131213990Y-98779114D01*
X131126389Y-98648011D01*
X131126386Y-98648007D01*
X131014892Y-98536513D01*
X131014888Y-98536510D01*
X130883785Y-98448909D01*
X130883772Y-98448902D01*
X130738101Y-98388564D01*
X130738091Y-98388561D01*
X130582751Y-98357662D01*
X130520841Y-98325277D01*
X130519262Y-98323726D01*
X128299019Y-96103483D01*
X128265534Y-96042160D01*
X128262700Y-96015802D01*
X128262700Y-65036259D01*
X128262701Y-65036246D01*
X128262701Y-64868145D01*
X128262701Y-64868143D01*
X128221777Y-64715415D01*
X128175986Y-64636103D01*
X128159353Y-64607293D01*
X128142721Y-64578485D01*
X128026585Y-64462349D01*
X128026574Y-64462339D01*
X122974371Y-59410136D01*
X122940886Y-59348813D01*
X122940497Y-59305085D01*
X122939703Y-59305007D01*
X122940300Y-59298944D01*
X122940300Y-59141255D01*
X122940299Y-59141253D01*
X122909538Y-58986610D01*
X122909537Y-58986603D01*
X122892007Y-58944282D01*
X122849197Y-58840927D01*
X122849190Y-58840914D01*
X122761589Y-58709811D01*
X122761586Y-58709807D01*
X122650092Y-58598313D01*
X122650088Y-58598310D01*
X122518985Y-58510709D01*
X122518972Y-58510702D01*
X122373301Y-58450364D01*
X122373289Y-58450361D01*
X122218645Y-58419600D01*
X122218642Y-58419600D01*
X122060958Y-58419600D01*
X122060955Y-58419600D01*
X121906310Y-58450361D01*
X121906298Y-58450364D01*
X121760627Y-58510702D01*
X121760614Y-58510709D01*
X121629511Y-58598310D01*
X121629507Y-58598313D01*
X121518013Y-58709807D01*
X121518007Y-58709815D01*
X121427022Y-58845985D01*
X121425064Y-58844676D01*
X121385189Y-58885849D01*
X121283981Y-58944282D01*
X117112039Y-63116225D01*
X117050716Y-63149710D01*
X117048550Y-63150161D01*
X116893208Y-63181061D01*
X116893198Y-63181064D01*
X116747527Y-63241402D01*
X116747514Y-63241409D01*
X116616411Y-63329010D01*
X116616407Y-63329013D01*
X116504913Y-63440507D01*
X116504910Y-63440511D01*
X116417309Y-63571614D01*
X116417302Y-63571627D01*
X116356964Y-63717298D01*
X116356961Y-63717310D01*
X116326200Y-63871953D01*
X116326200Y-64029646D01*
X116356961Y-64184289D01*
X116356964Y-64184301D01*
X116417302Y-64329972D01*
X116417309Y-64329985D01*
X116504910Y-64461088D01*
X116508776Y-64465799D01*
X116507845Y-64466562D01*
X116538279Y-64522296D01*
X116533295Y-64591988D01*
X116491423Y-64647921D01*
X116441305Y-64670271D01*
X116303608Y-64697661D01*
X116303598Y-64697664D01*
X116157927Y-64758002D01*
X116157914Y-64758009D01*
X116026811Y-64845610D01*
X116026807Y-64845613D01*
X115915313Y-64957107D01*
X115915310Y-64957111D01*
X115827709Y-65088214D01*
X115827702Y-65088227D01*
X115767364Y-65233898D01*
X115767361Y-65233910D01*
X115736600Y-65388553D01*
X115736600Y-65546246D01*
X115767361Y-65700889D01*
X115767364Y-65700901D01*
X115827702Y-65846572D01*
X115827709Y-65846585D01*
X115915310Y-65977688D01*
X115915313Y-65977692D01*
X116026807Y-66089186D01*
X116026811Y-66089189D01*
X116157914Y-66176790D01*
X116157927Y-66176797D01*
X116303598Y-66237135D01*
X116303603Y-66237137D01*
X116368247Y-66249995D01*
X116458949Y-66268038D01*
X116520860Y-66300423D01*
X116522439Y-66301974D01*
X121211881Y-70991416D01*
X121245366Y-71052739D01*
X121248200Y-71079097D01*
X121248200Y-94538334D01*
X121242871Y-94556479D01*
X121242534Y-94575388D01*
X121229034Y-94603603D01*
X121228515Y-94605373D01*
X121227302Y-94607225D01*
X121201840Y-94645331D01*
X121148227Y-94690136D01*
X121078902Y-94698843D01*
X121015875Y-94668688D01*
X121011057Y-94664121D01*
X120351319Y-94004383D01*
X120317834Y-93943060D01*
X120315000Y-93916702D01*
X120315000Y-89407141D01*
X120314999Y-89407140D01*
X120313430Y-89401282D01*
X120313429Y-89401281D01*
X120297793Y-89342927D01*
X120287810Y-89305669D01*
X120274077Y-89254416D01*
X120274073Y-89254409D01*
X120195024Y-89117490D01*
X120195021Y-89117486D01*
X120195020Y-89117484D01*
X120083216Y-89005680D01*
X120083215Y-89005679D01*
X120078885Y-89001349D01*
X120078874Y-89001339D01*
X118003874Y-86926339D01*
X117970389Y-86865016D01*
X117969938Y-86862849D01*
X117939038Y-86707510D01*
X117939037Y-86707503D01*
X117939035Y-86707498D01*
X117878697Y-86561827D01*
X117878690Y-86561814D01*
X117791089Y-86430711D01*
X117791086Y-86430707D01*
X117679592Y-86319213D01*
X117679588Y-86319210D01*
X117548485Y-86231609D01*
X117548472Y-86231602D01*
X117402801Y-86171264D01*
X117402789Y-86171261D01*
X117248145Y-86140500D01*
X117248142Y-86140500D01*
X117090458Y-86140500D01*
X117090455Y-86140500D01*
X116935810Y-86171261D01*
X116935798Y-86171264D01*
X116790127Y-86231602D01*
X116790114Y-86231609D01*
X116659011Y-86319210D01*
X116659007Y-86319213D01*
X116547513Y-86430707D01*
X116547510Y-86430711D01*
X116459909Y-86561814D01*
X116459902Y-86561827D01*
X116399564Y-86707498D01*
X116399561Y-86707510D01*
X116368800Y-86862153D01*
X116368800Y-87019846D01*
X116399561Y-87174489D01*
X116399564Y-87174501D01*
X116449017Y-87293892D01*
X116456486Y-87363361D01*
X116425210Y-87425840D01*
X116365121Y-87461492D01*
X116310265Y-87462961D01*
X116197346Y-87440500D01*
X116197342Y-87440500D01*
X116039658Y-87440500D01*
X116039655Y-87440500D01*
X115885010Y-87471261D01*
X115884998Y-87471264D01*
X115739327Y-87531602D01*
X115739314Y-87531609D01*
X115608211Y-87619210D01*
X115608207Y-87619213D01*
X115496713Y-87730707D01*
X115496710Y-87730711D01*
X115409109Y-87861814D01*
X115409102Y-87861827D01*
X115348764Y-88007498D01*
X115348761Y-88007510D01*
X115318000Y-88162153D01*
X115318000Y-88319846D01*
X115348761Y-88474489D01*
X115348764Y-88474501D01*
X115409102Y-88620172D01*
X115409109Y-88620185D01*
X115488095Y-88738395D01*
X115496635Y-88751176D01*
X115497102Y-88751874D01*
X115517980Y-88818551D01*
X115518000Y-88820765D01*
X115518000Y-106393134D01*
X115498315Y-106460173D01*
X115497102Y-106462025D01*
X115409109Y-106593714D01*
X115409102Y-106593727D01*
X115348764Y-106739398D01*
X115348761Y-106739410D01*
X115318000Y-106894053D01*
X115318000Y-107051746D01*
X115348761Y-107206389D01*
X115348764Y-107206401D01*
X115409102Y-107352072D01*
X115409109Y-107352085D01*
X115496710Y-107483188D01*
X115496713Y-107483192D01*
X115608207Y-107594686D01*
X115608211Y-107594689D01*
X115739314Y-107682290D01*
X115739327Y-107682297D01*
X115884998Y-107742635D01*
X115885003Y-107742637D01*
X115973934Y-107760326D01*
X115988349Y-107763194D01*
X116050260Y-107795578D01*
X116084834Y-107856294D01*
X116081095Y-107926064D01*
X116040229Y-107982736D01*
X115975211Y-108008317D01*
X115964174Y-108008811D01*
X111084942Y-108009421D01*
X111017900Y-107989745D01*
X110972138Y-107936947D01*
X110960926Y-107885339D01*
X111000073Y-50564880D01*
X111019803Y-50497856D01*
X111072639Y-50452137D01*
X111124165Y-50440967D01*
X189875593Y-50500031D01*
G37*
%TD.AperFunction*%
%TA.AperFunction,Conductor*%
G36*
X122848706Y-60993457D02*
G01*
X122883871Y-61018106D01*
X127025381Y-65159616D01*
X127058866Y-65220939D01*
X127061700Y-65247297D01*
X127061700Y-77721959D01*
X127042015Y-77788998D01*
X126989211Y-77834753D01*
X126920053Y-77844697D01*
X126856497Y-77815672D01*
X126850019Y-77809640D01*
X126787192Y-77746813D01*
X126787188Y-77746810D01*
X126656085Y-77659209D01*
X126656072Y-77659202D01*
X126510401Y-77598864D01*
X126510389Y-77598861D01*
X126355745Y-77568100D01*
X126355742Y-77568100D01*
X126198058Y-77568100D01*
X126198055Y-77568100D01*
X126043410Y-77598861D01*
X126043398Y-77598864D01*
X125897727Y-77659202D01*
X125897714Y-77659209D01*
X125766611Y-77746810D01*
X125766607Y-77746813D01*
X125655113Y-77858307D01*
X125655110Y-77858311D01*
X125567509Y-77989414D01*
X125567502Y-77989427D01*
X125507164Y-78135098D01*
X125507161Y-78135110D01*
X125476400Y-78289753D01*
X125476400Y-78447446D01*
X125507161Y-78602089D01*
X125507164Y-78602101D01*
X125567502Y-78747772D01*
X125567509Y-78747785D01*
X125655502Y-78879474D01*
X125676380Y-78946151D01*
X125676400Y-78948365D01*
X125676400Y-95641230D01*
X125676399Y-95641248D01*
X125676399Y-95806954D01*
X125676398Y-95806954D01*
X125706089Y-95917763D01*
X125717323Y-95959685D01*
X125736167Y-95992323D01*
X125796379Y-96096614D01*
X125796381Y-96096617D01*
X125915249Y-96215485D01*
X125915255Y-96215490D01*
X128873481Y-99173716D01*
X128888184Y-99200643D01*
X128904777Y-99226462D01*
X128905668Y-99232662D01*
X128906966Y-99235039D01*
X128909800Y-99261397D01*
X128909800Y-99265330D01*
X128909799Y-99265348D01*
X128909799Y-99431054D01*
X128909798Y-99431054D01*
X128909799Y-99431057D01*
X128950723Y-99583785D01*
X128950724Y-99583787D01*
X128950723Y-99583787D01*
X128958420Y-99597117D01*
X128958421Y-99597118D01*
X129029777Y-99720712D01*
X129029781Y-99720717D01*
X129148649Y-99839585D01*
X129148655Y-99839590D01*
X129491581Y-100182516D01*
X129525066Y-100243839D01*
X129527900Y-100270197D01*
X129527900Y-103737055D01*
X129525495Y-103745244D01*
X129526780Y-103753684D01*
X129515798Y-103778266D01*
X129508215Y-103804094D01*
X129501765Y-103809682D01*
X129498283Y-103817478D01*
X129475753Y-103832222D01*
X129455411Y-103849849D01*
X129445437Y-103852062D01*
X129439819Y-103855739D01*
X129420071Y-103857690D01*
X129404927Y-103861051D01*
X129397795Y-103861110D01*
X129397242Y-103861000D01*
X129239558Y-103861000D01*
X129232101Y-103862483D01*
X129220408Y-103862580D01*
X129197593Y-103856085D01*
X129173966Y-103853968D01*
X129161538Y-103845822D01*
X129153208Y-103843451D01*
X129146766Y-103836140D01*
X129131700Y-103826265D01*
X127681819Y-102376384D01*
X127648334Y-102315061D01*
X127645500Y-102288703D01*
X127645500Y-101636360D01*
X127645501Y-101636347D01*
X127645501Y-101468244D01*
X127645501Y-101468243D01*
X127604577Y-101315516D01*
X127604348Y-101315120D01*
X127525524Y-101178590D01*
X127525518Y-101178582D01*
X122302678Y-95955742D01*
X122269193Y-95894419D01*
X122274177Y-95824727D01*
X122316049Y-95768794D01*
X122321459Y-95764965D01*
X122358989Y-95739889D01*
X122470489Y-95628389D01*
X122558094Y-95497279D01*
X122618437Y-95351597D01*
X122649200Y-95196942D01*
X122649200Y-95039258D01*
X122649200Y-95039255D01*
X122649199Y-95039253D01*
X122644383Y-95015043D01*
X122618437Y-94884603D01*
X122615537Y-94877602D01*
X122558097Y-94738927D01*
X122558090Y-94738914D01*
X122470098Y-94607225D01*
X122449220Y-94540547D01*
X122449200Y-94538334D01*
X122449200Y-70868060D01*
X122449201Y-70868047D01*
X122449201Y-70699944D01*
X122408276Y-70547214D01*
X122408273Y-70547209D01*
X122329224Y-70410290D01*
X122329218Y-70410282D01*
X121121870Y-69202934D01*
X119862509Y-67943574D01*
X119829025Y-67882252D01*
X119834009Y-67812560D01*
X119847089Y-67787003D01*
X119864925Y-67760310D01*
X119930494Y-67662179D01*
X119990837Y-67516497D01*
X120021600Y-67361842D01*
X120021600Y-67204158D01*
X120021600Y-67204155D01*
X120021599Y-67204153D01*
X119990838Y-67049510D01*
X119990837Y-67049503D01*
X119985907Y-67037601D01*
X119930497Y-66903827D01*
X119930490Y-66903814D01*
X119842498Y-66772125D01*
X119821620Y-66705447D01*
X119821600Y-66703234D01*
X119821600Y-63823297D01*
X119841285Y-63756258D01*
X119857919Y-63735616D01*
X120878663Y-62714872D01*
X121922362Y-61671172D01*
X121983683Y-61637689D01*
X121985850Y-61637238D01*
X122043785Y-61625713D01*
X122141197Y-61606337D01*
X122286879Y-61545994D01*
X122417989Y-61458389D01*
X122529489Y-61346889D01*
X122617094Y-61215779D01*
X122677437Y-61070097D01*
X122677439Y-61070086D01*
X122677529Y-61069792D01*
X122677622Y-61069648D01*
X122679768Y-61064470D01*
X122680750Y-61064876D01*
X122715826Y-61011353D01*
X122779638Y-60982897D01*
X122848706Y-60993457D01*
G37*
%TD.AperFunction*%
%TD*%
M02*
