%TF.GenerationSoftware,KiCad,Pcbnew,9.0.0*%
%TF.CreationDate,2025-04-09T21:38:28+02:00*%
%TF.ProjectId,ProLib_pcs_2025-03-23,50726f4c-6962-45f7-9063-735f32303235,rev?*%
%TF.SameCoordinates,Original*%
%TF.FileFunction,Legend,Bot*%
%TF.FilePolarity,Positive*%
%FSLAX46Y46*%
G04 Gerber Fmt 4.6, Leading zero omitted, Abs format (unit mm)*
G04 Created by KiCad (PCBNEW 9.0.0) date 2025-04-09 21:38:28*
%MOMM*%
%LPD*%
G01*
G04 APERTURE LIST*
G04 Aperture macros list*
%AMRoundRect*
0 Rectangle with rounded corners*
0 $1 Rounding radius*
0 $2 $3 $4 $5 $6 $7 $8 $9 X,Y pos of 4 corners*
0 Add a 4 corners polygon primitive as box body*
4,1,4,$2,$3,$4,$5,$6,$7,$8,$9,$2,$3,0*
0 Add four circle primitives for the rounded corners*
1,1,$1+$1,$2,$3*
1,1,$1+$1,$4,$5*
1,1,$1+$1,$6,$7*
1,1,$1+$1,$8,$9*
0 Add four rect primitives between the rounded corners*
20,1,$1+$1,$2,$3,$4,$5,0*
20,1,$1+$1,$4,$5,$6,$7,0*
20,1,$1+$1,$6,$7,$8,$9,0*
20,1,$1+$1,$8,$9,$2,$3,0*%
G04 Aperture macros list end*
%ADD10RoundRect,0.250000X-0.350000X-0.625000X0.350000X-0.625000X0.350000X0.625000X-0.350000X0.625000X0*%
%ADD11O,1.200000X1.750000*%
%ADD12R,2.500000X3.000000*%
%ADD13C,3.000000*%
%ADD14R,1.700000X1.700000*%
%ADD15O,1.700000X1.700000*%
%ADD16C,0.600000*%
%ADD17O,2.000000X0.900000*%
%ADD18O,1.700000X0.900000*%
G04 APERTURE END LIST*
%LPC*%
D10*
%TO.C,J3*%
X163007000Y-69844000D03*
D11*
X165007000Y-69844000D03*
%TD*%
D12*
%TO.C,U1*%
X170393025Y-62189000D03*
D13*
X165693000Y-62189000D03*
X160992975Y-62189000D03*
%TD*%
D14*
%TO.C,J2*%
X133690000Y-102850000D03*
D15*
X133690000Y-100310000D03*
X136230000Y-102850000D03*
X136230000Y-100310000D03*
X138770000Y-102850000D03*
X138770000Y-100310000D03*
X141310000Y-102850000D03*
X141310000Y-100310000D03*
X143850000Y-102850000D03*
X143850000Y-100310000D03*
X146390000Y-102850000D03*
X146390000Y-100310000D03*
X148930000Y-102850000D03*
X148930000Y-100310000D03*
X151470000Y-102850000D03*
X151470000Y-100310000D03*
X154010000Y-102850000D03*
X154010000Y-100310000D03*
X156550000Y-102850000D03*
X156550000Y-100310000D03*
X159090000Y-102850000D03*
X159090000Y-100310000D03*
X161630000Y-102850000D03*
X161630000Y-100310000D03*
X164170000Y-102850000D03*
X164170000Y-100310000D03*
X166710000Y-102850000D03*
X166710000Y-100310000D03*
X169250000Y-102850000D03*
X169250000Y-100310000D03*
X171790000Y-102850000D03*
X171790000Y-100310000D03*
%TD*%
D16*
%TO.C,J1*%
X183290000Y-81036000D03*
X183290000Y-75256000D03*
D17*
X182800000Y-82471000D03*
X182800000Y-73821000D03*
D18*
X186970000Y-82471000D03*
X186970000Y-73821000D03*
%TD*%
%LPD*%
M02*
