M48
; DRILL file {KiCad 9.0.0} date 2025-04-09T21:38:28+0200
; FORMAT={-:-/ absolute / inch / decimal}
; #@! TF.CreationDate,2025-04-09T21:38:28+02:00
; #@! TF.GenerationSoftware,Kicad,Pcbnew,9.0.0
; #@! TF.FileFunction,Plated,1,2,PTH
FMAT,2
INCH
; #@! TA.AperFunction,Plated,PTH,ViaDrill
T1C0.0118
; #@! TA.AperFunction,Plated,PTH,ComponentDrill
T2C0.0236
; #@! TA.AperFunction,Plated,PTH,ComponentDrill
T3C0.0295
; #@! TA.AperFunction,Plated,PTH,ComponentDrill
T4C0.0394
; #@! TA.AperFunction,Plated,PTH,ComponentDrill
T5C0.0709
; #@! TA.AperFunction,Plated,PTH,ViaDrill
T6C0.1260
%
G90
G05
T1
X4.5716Y-3.4741
X4.5716Y-4.2115
X4.5881Y-2.5775
X4.6038Y-3.7257
X4.6071Y-3.4996
X4.6113Y-2.5177
X4.613Y-3.4229
X4.613Y-4.1124
X4.6313Y-3.5508
X4.6937Y-2.6489
X4.7947Y-4.196
X4.7972Y-3.7448
X4.7995Y-2.3951
X4.8044Y-3.8816
X4.8087Y-2.3315
X4.8205Y-3.9328
X4.8225Y-4.0352
X4.834Y-2.4555
X4.946Y-3.5473
X4.946Y-3.7768
X4.9461Y-4.0078
X4.9478Y-3.2171
X4.9715Y-3.0854
X4.9855Y-4.1334
X5.0186Y-3.8996
X5.0255Y-4.0261
X5.0909Y-3.1568
X5.0913Y-4.1205
X5.0957Y-2.8846
X5.1082Y-2.6301
X5.1082Y-2.8151
X5.1232Y-4.1267
X5.138Y-3.9039
X5.2634Y-3.8643
X5.4112Y-4.2277
X5.4371Y-3.6308
X5.4852Y-2.9471
X5.6076Y-3.3874
X5.6195Y-3.7557
X5.6545Y-3.2611
X5.6626Y-3.7762
X5.6675Y-3.0278
X5.6804Y-2.9614
X5.6811Y-3.0956
X5.6919Y-2.4577
X5.7076Y-3.0315
X5.7076Y-3.4121
X5.7341Y-2.2827
X5.7341Y-2.7474
X5.816Y-3.7633
X5.8634Y-3.8844
X5.9265Y-3.8303
X6.1343Y-2.8991
X6.1917Y-3.5607
X6.2224Y-3.177
X6.2287Y-3.9082
X6.2754Y-2.8354
X6.318Y-3.5032
X6.4176Y-2.0979
X6.4239Y-4.168
X6.4634Y-3.8066
X6.6224Y-3.8844
X6.7055Y-3.5324
X6.7198Y-3.8845
X6.73Y-3.6085
X6.7557Y-3.6774
X6.8572Y-2.3096
X6.8572Y-3.0668
X6.8928Y-2.555
X6.8928Y-3.0077
X6.9159Y-3.1263
X6.9321Y-2.5539
X6.9705Y-3.0471
X6.9775Y-2.2184
X6.9942Y-2.4542
X6.9968Y-2.8736
X7.0708Y-2.8006
X7.1104Y-2.6922
X7.1104Y-3.8388
T3
X6.4176Y-2.7498
X6.4963Y-2.7498
T4
X5.2634Y-3.9492
X5.2634Y-4.0492
X5.3634Y-3.9492
X5.3634Y-4.0492
X5.4634Y-3.9492
X5.4634Y-4.0492
X5.5634Y-3.9492
X5.5634Y-4.0492
X5.6634Y-3.9492
X5.6634Y-4.0492
X5.7634Y-3.9492
X5.7634Y-4.0492
X5.8634Y-3.9492
X5.8634Y-4.0492
X5.9634Y-3.9492
X5.9634Y-4.0492
X6.0634Y-3.9492
X6.0634Y-4.0492
X6.1634Y-3.9492
X6.1634Y-4.0492
X6.2634Y-3.9492
X6.2634Y-4.0492
X6.3634Y-3.9492
X6.3634Y-4.0492
X6.4634Y-3.9492
X6.4634Y-4.0492
X6.5634Y-3.9492
X6.5634Y-4.0492
X6.6634Y-3.9492
X6.6634Y-4.0492
X6.7634Y-3.9492
X6.7634Y-4.0492
T5
X6.3383Y-2.4484
X6.5233Y-2.4484
X6.7084Y-2.4484
T6
X6.0264Y-2.2638
X6.0264Y-2.6575
X6.0264Y-3.0512
T2
G00X7.1752Y-2.9063
M15
G01X7.2185Y-2.9063
M16
G05
G00X7.1752Y-3.2469
M15
G01X7.2185Y-3.2469
M16
G05
G00X7.3453Y-2.9063
M15
G01X7.3768Y-2.9063
M16
G05
G00X7.3453Y-3.2469
M15
G01X7.3768Y-3.2469
M16
G05
M30
