%TF.GenerationSoftware,KiCad,Pcbnew,9.0.0*%
%TF.CreationDate,2025-04-09T21:38:28+02:00*%
%TF.ProjectId,ProLib_pcs_2025-03-23,50726f4c-6962-45f7-9063-735f32303235,rev?*%
%TF.SameCoordinates,Original*%
%TF.FileFunction,Soldermask,Top*%
%TF.FilePolarity,Negative*%
%FSLAX46Y46*%
G04 Gerber Fmt 4.6, Leading zero omitted, Abs format (unit mm)*
G04 Created by KiCad (PCBNEW 9.0.0) date 2025-04-09 21:38:28*
%MOMM*%
%LPD*%
G01*
G04 APERTURE LIST*
G04 Aperture macros list*
%AMRoundRect*
0 Rectangle with rounded corners*
0 $1 Rounding radius*
0 $2 $3 $4 $5 $6 $7 $8 $9 X,Y pos of 4 corners*
0 Add a 4 corners polygon primitive as box body*
4,1,4,$2,$3,$4,$5,$6,$7,$8,$9,$2,$3,0*
0 Add four circle primitives for the rounded corners*
1,1,$1+$1,$2,$3*
1,1,$1+$1,$4,$5*
1,1,$1+$1,$6,$7*
1,1,$1+$1,$8,$9*
0 Add four rect primitives between the rounded corners*
20,1,$1+$1,$2,$3,$4,$5,0*
20,1,$1+$1,$4,$5,$6,$7,0*
20,1,$1+$1,$6,$7,$8,$9,0*
20,1,$1+$1,$8,$9,$2,$3,0*%
%AMFreePoly0*
4,1,23,0.500000,-0.750000,0.000000,-0.750000,0.000000,-0.745722,-0.065263,-0.745722,-0.191342,-0.711940,-0.304381,-0.646677,-0.396677,-0.554381,-0.461940,-0.441342,-0.495722,-0.315263,-0.495722,-0.250000,-0.500000,-0.250000,-0.500000,0.250000,-0.495722,0.250000,-0.495722,0.315263,-0.461940,0.441342,-0.396677,0.554381,-0.304381,0.646677,-0.191342,0.711940,-0.065263,0.745722,0.000000,0.745722,
0.000000,0.750000,0.500000,0.750000,0.500000,-0.750000,0.500000,-0.750000,$1*%
%AMFreePoly1*
4,1,23,0.000000,0.745722,0.065263,0.745722,0.191342,0.711940,0.304381,0.646677,0.396677,0.554381,0.461940,0.441342,0.495722,0.315263,0.495722,0.250000,0.500000,0.250000,0.500000,-0.250000,0.495722,-0.250000,0.495722,-0.315263,0.461940,-0.441342,0.396677,-0.554381,0.304381,-0.646677,0.191342,-0.711940,0.065263,-0.745722,0.000000,-0.745722,0.000000,-0.750000,-0.500000,-0.750000,
-0.500000,0.750000,0.000000,0.750000,0.000000,0.745722,0.000000,0.745722,$1*%
%AMFreePoly2*
4,1,23,0.550000,-0.750000,0.000000,-0.750000,0.000000,-0.745722,-0.065263,-0.745722,-0.191342,-0.711940,-0.304381,-0.646677,-0.396677,-0.554381,-0.461940,-0.441342,-0.495722,-0.315263,-0.495722,-0.250000,-0.500000,-0.250000,-0.500000,0.250000,-0.495722,0.250000,-0.495722,0.315263,-0.461940,0.441342,-0.396677,0.554381,-0.304381,0.646677,-0.191342,0.711940,-0.065263,0.745722,0.000000,0.745722,
0.000000,0.750000,0.550000,0.750000,0.550000,-0.750000,0.550000,-0.750000,$1*%
%AMFreePoly3*
4,1,23,0.000000,0.745722,0.065263,0.745722,0.191342,0.711940,0.304381,0.646677,0.396677,0.554381,0.461940,0.441342,0.495722,0.315263,0.495722,0.250000,0.500000,0.250000,0.500000,-0.250000,0.495722,-0.250000,0.495722,-0.315263,0.461940,-0.441342,0.396677,-0.554381,0.304381,-0.646677,0.191342,-0.711940,0.065263,-0.745722,0.000000,-0.745722,0.000000,-0.750000,-0.550000,-0.750000,
-0.550000,0.750000,0.000000,0.750000,0.000000,0.745722,0.000000,0.745722,$1*%
G04 Aperture macros list end*
%ADD10C,0.010000*%
%ADD11RoundRect,0.150000X-0.825000X-0.150000X0.825000X-0.150000X0.825000X0.150000X-0.825000X0.150000X0*%
%ADD12RoundRect,0.237500X-0.250000X-0.237500X0.250000X-0.237500X0.250000X0.237500X-0.250000X0.237500X0*%
%ADD13RoundRect,0.237500X0.237500X-0.300000X0.237500X0.300000X-0.237500X0.300000X-0.237500X-0.300000X0*%
%ADD14RoundRect,0.237500X-0.300000X-0.237500X0.300000X-0.237500X0.300000X0.237500X-0.300000X0.237500X0*%
%ADD15FreePoly0,0.000000*%
%ADD16FreePoly1,0.000000*%
%ADD17RoundRect,0.150000X-0.512500X-0.150000X0.512500X-0.150000X0.512500X0.150000X-0.512500X0.150000X0*%
%ADD18RoundRect,0.102000X-1.075000X-0.475000X1.075000X-0.475000X1.075000X0.475000X-1.075000X0.475000X0*%
%ADD19RoundRect,0.102000X-1.075000X-1.625000X1.075000X-1.625000X1.075000X1.625000X-1.075000X1.625000X0*%
%ADD20RoundRect,0.237500X0.287500X0.237500X-0.287500X0.237500X-0.287500X-0.237500X0.287500X-0.237500X0*%
%ADD21RoundRect,0.250000X-0.350000X-0.625000X0.350000X-0.625000X0.350000X0.625000X-0.350000X0.625000X0*%
%ADD22O,1.200000X1.750000*%
%ADD23R,2.500000X3.000000*%
%ADD24C,3.000000*%
%ADD25RoundRect,0.250000X0.400000X0.625000X-0.400000X0.625000X-0.400000X-0.625000X0.400000X-0.625000X0*%
%ADD26RoundRect,0.098000X-0.609000X-0.294000X0.609000X-0.294000X0.609000X0.294000X-0.609000X0.294000X0*%
%ADD27RoundRect,0.237500X0.300000X0.237500X-0.300000X0.237500X-0.300000X-0.237500X0.300000X-0.237500X0*%
%ADD28FreePoly0,90.000000*%
%ADD29FreePoly1,90.000000*%
%ADD30RoundRect,0.237500X-0.287500X-0.237500X0.287500X-0.237500X0.287500X0.237500X-0.287500X0.237500X0*%
%ADD31R,0.600000X1.500000*%
%ADD32R,3.300000X2.100000*%
%ADD33RoundRect,0.250000X-0.400000X-0.625000X0.400000X-0.625000X0.400000X0.625000X-0.400000X0.625000X0*%
%ADD34RoundRect,0.100000X-0.637500X-0.100000X0.637500X-0.100000X0.637500X0.100000X-0.637500X0.100000X0*%
%ADD35R,1.250013X0.700000*%
%ADD36FreePoly0,180.000000*%
%ADD37FreePoly1,180.000000*%
%ADD38R,1.700000X1.700000*%
%ADD39O,1.700000X1.700000*%
%ADD40O,2.204000X1.104000*%
%ADD41O,1.904000X1.104000*%
%ADD42R,1.000000X1.200000*%
%ADD43FreePoly2,0.000000*%
%ADD44R,1.000000X1.500000*%
%ADD45FreePoly3,0.000000*%
%ADD46RoundRect,0.237500X0.250000X0.237500X-0.250000X0.237500X-0.250000X-0.237500X0.250000X-0.237500X0*%
%ADD47RoundRect,0.249999X-0.450001X-1.425001X0.450001X-1.425001X0.450001X1.425001X-0.450001X1.425001X0*%
%ADD48R,0.600000X1.200000*%
%ADD49R,3.300000X2.400000*%
G04 APERTURE END LIST*
%TO.C,JP2*%
G36*
X136992000Y-72240000D02*
G01*
X137292000Y-72240000D01*
X137292000Y-73740000D01*
X136992000Y-73740000D01*
X136992000Y-72240000D01*
G37*
%TO.C,JP20*%
G36*
X131762000Y-72597000D02*
G01*
X132062000Y-72597000D01*
X132062000Y-74097000D01*
X131762000Y-74097000D01*
X131762000Y-72597000D01*
G37*
%TO.C,JP11*%
G36*
X130593000Y-56232000D02*
G01*
X130893000Y-56232000D01*
X130893000Y-57732000D01*
X130593000Y-57732000D01*
X130593000Y-56232000D01*
G37*
%TO.C,JP13*%
G36*
X135074000Y-56179000D02*
G01*
X135374000Y-56179000D01*
X135374000Y-57679000D01*
X135074000Y-57679000D01*
X135074000Y-56179000D01*
G37*
%TO.C,JP10*%
G36*
X120984000Y-72632000D02*
G01*
X121284000Y-72632000D01*
X121284000Y-74132000D01*
X120984000Y-74132000D01*
X120984000Y-72632000D01*
G37*
%TO.C,JP5*%
G36*
X146126000Y-74566000D02*
G01*
X146426000Y-74566000D01*
X146426000Y-76066000D01*
X146126000Y-76066000D01*
X146126000Y-74566000D01*
G37*
%TO.C,JP12*%
G36*
X130585000Y-52536000D02*
G01*
X130885000Y-52536000D01*
X130885000Y-54036000D01*
X130585000Y-54036000D01*
X130585000Y-52536000D01*
G37*
%TO.C,JP3*%
G36*
X146091000Y-62200000D02*
G01*
X146391000Y-62200000D01*
X146391000Y-63700000D01*
X146091000Y-63700000D01*
X146091000Y-62200000D01*
G37*
%TO.C,JP6*%
G36*
X145891000Y-79230000D02*
G01*
X147391000Y-79230000D01*
X147391000Y-78930000D01*
X145891000Y-78930000D01*
X145891000Y-79230000D01*
G37*
%TO.C,JP17*%
G36*
X168667000Y-89825000D02*
G01*
X168967000Y-89825000D01*
X168967000Y-91325000D01*
X168667000Y-91325000D01*
X168667000Y-89825000D01*
G37*
%TO.C,JP15*%
G36*
X115417000Y-92447000D02*
G01*
X115717000Y-92447000D01*
X115717000Y-93947000D01*
X115417000Y-93947000D01*
X115417000Y-92447000D01*
G37*
%TO.C,JP1*%
G36*
X137006000Y-67635000D02*
G01*
X137306000Y-67635000D01*
X137306000Y-69135000D01*
X137006000Y-69135000D01*
X137006000Y-67635000D01*
G37*
%TO.C,JP4*%
G36*
X146386000Y-69274000D02*
G01*
X146086000Y-69274000D01*
X146086000Y-67774000D01*
X146386000Y-67774000D01*
X146386000Y-69274000D01*
G37*
%TO.C,JP19*%
G36*
X131838000Y-79678000D02*
G01*
X132138000Y-79678000D01*
X132138000Y-81178000D01*
X131838000Y-81178000D01*
X131838000Y-79678000D01*
G37*
D10*
%TO.C,J1*%
X182840000Y-75296000D02*
X181600000Y-75296000D01*
X181600000Y-74596000D01*
X182840000Y-74596000D01*
X182840000Y-75296000D01*
G36*
X182840000Y-75296000D02*
G01*
X181600000Y-75296000D01*
X181600000Y-74596000D01*
X182840000Y-74596000D01*
X182840000Y-75296000D01*
G37*
X182840000Y-76096000D02*
X181600000Y-76096000D01*
X181600000Y-75396000D01*
X182840000Y-75396000D01*
X182840000Y-76096000D01*
G36*
X182840000Y-76096000D02*
G01*
X181600000Y-76096000D01*
X181600000Y-75396000D01*
X182840000Y-75396000D01*
X182840000Y-76096000D01*
G37*
X182840000Y-76596000D02*
X181600000Y-76596000D01*
X181600000Y-76196000D01*
X182840000Y-76196000D01*
X182840000Y-76596000D01*
G36*
X182840000Y-76596000D02*
G01*
X181600000Y-76596000D01*
X181600000Y-76196000D01*
X182840000Y-76196000D01*
X182840000Y-76596000D01*
G37*
X182840000Y-77096000D02*
X181600000Y-77096000D01*
X181600000Y-76696000D01*
X182840000Y-76696000D01*
X182840000Y-77096000D01*
G36*
X182840000Y-77096000D02*
G01*
X181600000Y-77096000D01*
X181600000Y-76696000D01*
X182840000Y-76696000D01*
X182840000Y-77096000D01*
G37*
X182840000Y-77596000D02*
X181600000Y-77596000D01*
X181600000Y-77196000D01*
X182840000Y-77196000D01*
X182840000Y-77596000D01*
G36*
X182840000Y-77596000D02*
G01*
X181600000Y-77596000D01*
X181600000Y-77196000D01*
X182840000Y-77196000D01*
X182840000Y-77596000D01*
G37*
X182840000Y-78096000D02*
X181600000Y-78096000D01*
X181600000Y-77696000D01*
X182840000Y-77696000D01*
X182840000Y-78096000D01*
G36*
X182840000Y-78096000D02*
G01*
X181600000Y-78096000D01*
X181600000Y-77696000D01*
X182840000Y-77696000D01*
X182840000Y-78096000D01*
G37*
X182840000Y-78596000D02*
X181600000Y-78596000D01*
X181600000Y-78196000D01*
X182840000Y-78196000D01*
X182840000Y-78596000D01*
G36*
X182840000Y-78596000D02*
G01*
X181600000Y-78596000D01*
X181600000Y-78196000D01*
X182840000Y-78196000D01*
X182840000Y-78596000D01*
G37*
X182840000Y-79096000D02*
X181600000Y-79096000D01*
X181600000Y-78696000D01*
X182840000Y-78696000D01*
X182840000Y-79096000D01*
G36*
X182840000Y-79096000D02*
G01*
X181600000Y-79096000D01*
X181600000Y-78696000D01*
X182840000Y-78696000D01*
X182840000Y-79096000D01*
G37*
X182840000Y-79596000D02*
X181600000Y-79596000D01*
X181600000Y-79196000D01*
X182840000Y-79196000D01*
X182840000Y-79596000D01*
G36*
X182840000Y-79596000D02*
G01*
X181600000Y-79596000D01*
X181600000Y-79196000D01*
X182840000Y-79196000D01*
X182840000Y-79596000D01*
G37*
X182840000Y-80096000D02*
X181600000Y-80096000D01*
X181600000Y-79696000D01*
X182840000Y-79696000D01*
X182840000Y-80096000D01*
G36*
X182840000Y-80096000D02*
G01*
X181600000Y-80096000D01*
X181600000Y-79696000D01*
X182840000Y-79696000D01*
X182840000Y-80096000D01*
G37*
X182840000Y-80896000D02*
X181600000Y-80896000D01*
X181600000Y-80196000D01*
X182840000Y-80196000D01*
X182840000Y-80896000D01*
G36*
X182840000Y-80896000D02*
G01*
X181600000Y-80896000D01*
X181600000Y-80196000D01*
X182840000Y-80196000D01*
X182840000Y-80896000D01*
G37*
X182840000Y-81696000D02*
X181600000Y-81696000D01*
X181600000Y-80996000D01*
X182840000Y-80996000D01*
X182840000Y-81696000D01*
G36*
X182840000Y-81696000D02*
G01*
X181600000Y-81696000D01*
X181600000Y-80996000D01*
X182840000Y-80996000D01*
X182840000Y-81696000D01*
G37*
%TO.C,JP14*%
G36*
X115583000Y-104760000D02*
G01*
X115883000Y-104760000D01*
X115883000Y-106260000D01*
X115583000Y-106260000D01*
X115583000Y-104760000D01*
G37*
%TO.C,JP16*%
G36*
X179929000Y-98011000D02*
G01*
X180229000Y-98011000D01*
X180229000Y-99511000D01*
X179929000Y-99511000D01*
X179929000Y-98011000D01*
G37*
%TO.C,JP18*%
G36*
X180182000Y-102469000D02*
G01*
X181682000Y-102469000D01*
X181682000Y-103969000D01*
X180182000Y-103969000D01*
X180182000Y-102469000D01*
G37*
%TO.C,JP9*%
G36*
X121086000Y-79411000D02*
G01*
X121386000Y-79411000D01*
X121386000Y-80911000D01*
X121086000Y-80911000D01*
X121086000Y-79411000D01*
G37*
%TD*%
D11*
%TO.C,U9*%
X115454000Y-60835000D03*
X115454000Y-62105000D03*
X115454000Y-63375000D03*
X115454000Y-64645000D03*
X120404000Y-64645000D03*
X120404000Y-63375000D03*
X120404000Y-62105000D03*
X120404000Y-60835000D03*
%TD*%
D12*
%TO.C,R9*%
X177777500Y-68187000D03*
X179602500Y-68187000D03*
%TD*%
D13*
%TO.C,C21*%
X123296000Y-60922500D03*
X123296000Y-59197500D03*
%TD*%
D14*
%TO.C,C4*%
X123878500Y-86839000D03*
X125603500Y-86839000D03*
%TD*%
D15*
%TO.C,JP2*%
X136492000Y-72990000D03*
D16*
X137792000Y-72990000D03*
%TD*%
D17*
%TO.C,U5*%
X140746500Y-64741000D03*
X140746500Y-65691000D03*
X140746500Y-66641000D03*
X143021500Y-66641000D03*
X143021500Y-64741000D03*
%TD*%
D14*
%TO.C,C17*%
X132050500Y-68332000D03*
X133775500Y-68332000D03*
%TD*%
D18*
%TO.C,VR1*%
X128080000Y-60242000D03*
X128080000Y-62542000D03*
X128080000Y-64842000D03*
D19*
X133880000Y-62542000D03*
%TD*%
D14*
%TO.C,C16*%
X127772500Y-68342000D03*
X129497500Y-68342000D03*
%TD*%
D15*
%TO.C,JP20*%
X131262000Y-73347000D03*
D16*
X132562000Y-73347000D03*
%TD*%
D14*
%TO.C,C2*%
X124323500Y-99669000D03*
X126048500Y-99669000D03*
%TD*%
%TO.C,C24*%
X131179500Y-76794000D03*
X132904500Y-76794000D03*
%TD*%
D15*
%TO.C,JP11*%
X130093000Y-56982000D03*
D16*
X131393000Y-56982000D03*
%TD*%
D17*
%TO.C,U6*%
X140501500Y-74697500D03*
X140501500Y-75647500D03*
X140501500Y-76597500D03*
X142776500Y-76597500D03*
X142776500Y-75647500D03*
X142776500Y-74697500D03*
%TD*%
D15*
%TO.C,JP13*%
X134574000Y-56929000D03*
D16*
X135874000Y-56929000D03*
%TD*%
D15*
%TO.C,JP10*%
X120484000Y-73382000D03*
D16*
X121784000Y-73382000D03*
%TD*%
D20*
%TO.C,L1*%
X147047000Y-84819000D03*
X145297000Y-84819000D03*
%TD*%
D12*
%TO.C,R13*%
X157071500Y-93356000D03*
X158896500Y-93356000D03*
%TD*%
D14*
%TO.C,C6*%
X123845500Y-91236000D03*
X125570500Y-91236000D03*
%TD*%
D15*
%TO.C,JP5*%
X145626000Y-75316000D03*
D16*
X146926000Y-75316000D03*
%TD*%
D21*
%TO.C,J3*%
X163007000Y-69844000D03*
D22*
X165007000Y-69844000D03*
%TD*%
D12*
%TO.C,R11*%
X161533500Y-86044000D03*
X163358500Y-86044000D03*
%TD*%
%TO.C,R4*%
X140896500Y-88011000D03*
X142721500Y-88011000D03*
%TD*%
D14*
%TO.C,C3*%
X123803500Y-89099000D03*
X125528500Y-89099000D03*
%TD*%
D23*
%TO.C,U1*%
X170393025Y-62189000D03*
D24*
X165693000Y-62189000D03*
X160992975Y-62189000D03*
%TD*%
D25*
%TO.C,R2*%
X119617000Y-83043000D03*
X116517000Y-83043000D03*
%TD*%
D15*
%TO.C,JP12*%
X130085000Y-53286000D03*
D16*
X131385000Y-53286000D03*
%TD*%
D12*
%TO.C,R12*%
X167885500Y-93112000D03*
X169710500Y-93112000D03*
%TD*%
D26*
%TO.C,U10*%
X125897000Y-75668000D03*
X125897000Y-76618000D03*
X125897000Y-77568000D03*
X128407000Y-77568000D03*
X128407000Y-76618000D03*
X128407000Y-75668000D03*
%TD*%
D14*
%TO.C,C10*%
X120344500Y-76794000D03*
X122069500Y-76794000D03*
%TD*%
D27*
%TO.C,C15*%
X179536500Y-66174000D03*
X177811500Y-66174000D03*
%TD*%
D12*
%TO.C,R14*%
X136503500Y-77674000D03*
X138328500Y-77674000D03*
%TD*%
D15*
%TO.C,JP3*%
X145591000Y-62950000D03*
D16*
X146891000Y-62950000D03*
%TD*%
D12*
%TO.C,R7*%
X118784500Y-58651000D03*
X120609500Y-58651000D03*
%TD*%
%TO.C,R3*%
X136714500Y-86117000D03*
X138539500Y-86117000D03*
%TD*%
D28*
%TO.C,JP6*%
X146641000Y-79730000D03*
D29*
X146641000Y-78430000D03*
%TD*%
D15*
%TO.C,JP17*%
X168167000Y-90575000D03*
D16*
X169467000Y-90575000D03*
%TD*%
D15*
%TO.C,JP15*%
X114917000Y-93197000D03*
D16*
X116217000Y-93197000D03*
%TD*%
D30*
%TO.C,D3*%
X168059000Y-88094000D03*
X169809000Y-88094000D03*
%TD*%
D31*
%TO.C,U8*%
X179075924Y-57610873D03*
X178075924Y-57610873D03*
X177075924Y-57610873D03*
X176075924Y-57610873D03*
X175075924Y-57610873D03*
X175075924Y-63610873D03*
X176075924Y-63611127D03*
X177075924Y-63611127D03*
X178075924Y-63611127D03*
X179075924Y-63610873D03*
D32*
X177075924Y-60611127D03*
%TD*%
D27*
%TO.C,C11*%
X142391500Y-69043000D03*
X140666500Y-69043000D03*
%TD*%
D15*
%TO.C,JP1*%
X136506000Y-68385000D03*
D16*
X137806000Y-68385000D03*
%TD*%
D33*
%TO.C,R1*%
X124237000Y-96099000D03*
X127337000Y-96099000D03*
%TD*%
D12*
%TO.C,R10*%
X157139500Y-86026000D03*
X158964500Y-86026000D03*
%TD*%
D34*
%TO.C,U2*%
X115063000Y-98594000D03*
X115063000Y-99244000D03*
X115063000Y-99894000D03*
X115063000Y-100544000D03*
X115063000Y-101194000D03*
X115063000Y-101844000D03*
X115063000Y-102494000D03*
X115063000Y-103144000D03*
X120788000Y-103144000D03*
X120788000Y-102494000D03*
X120788000Y-101844000D03*
X120788000Y-101194000D03*
X120788000Y-100544000D03*
X120788000Y-99894000D03*
X120788000Y-99244000D03*
X120788000Y-98594000D03*
%TD*%
D35*
%TO.C,U12*%
X160021000Y-90003962D03*
X160021000Y-88104038D03*
X158021000Y-89054000D03*
%TD*%
D14*
%TO.C,C22*%
X124367500Y-102876000D03*
X126092500Y-102876000D03*
%TD*%
%TO.C,C1*%
X124367500Y-105994000D03*
X126092500Y-105994000D03*
%TD*%
D33*
%TO.C,R15*%
X116930000Y-96099000D03*
X120030000Y-96099000D03*
%TD*%
D12*
%TO.C,R8*%
X177794500Y-70151000D03*
X179619500Y-70151000D03*
%TD*%
D36*
%TO.C,JP4*%
X146886000Y-68524000D03*
D37*
X145586000Y-68524000D03*
%TD*%
D38*
%TO.C,J2*%
X133690000Y-102850000D03*
D39*
X133690000Y-100310000D03*
X136230000Y-102850000D03*
X136230000Y-100310000D03*
X138770000Y-102850000D03*
X138770000Y-100310000D03*
X141310000Y-102850000D03*
X141310000Y-100310000D03*
X143850000Y-102850000D03*
X143850000Y-100310000D03*
X146390000Y-102850000D03*
X146390000Y-100310000D03*
X148930000Y-102850000D03*
X148930000Y-100310000D03*
X151470000Y-102850000D03*
X151470000Y-100310000D03*
X154010000Y-102850000D03*
X154010000Y-100310000D03*
X156550000Y-102850000D03*
X156550000Y-100310000D03*
X159090000Y-102850000D03*
X159090000Y-100310000D03*
X161630000Y-102850000D03*
X161630000Y-100310000D03*
X164170000Y-102850000D03*
X164170000Y-100310000D03*
X166710000Y-102850000D03*
X166710000Y-100310000D03*
X169250000Y-102850000D03*
X169250000Y-100310000D03*
X171790000Y-102850000D03*
X171790000Y-100310000D03*
%TD*%
D14*
%TO.C,C18*%
X168011500Y-95169000D03*
X169736500Y-95169000D03*
%TD*%
D15*
%TO.C,JP19*%
X131338000Y-80428000D03*
D16*
X132638000Y-80428000D03*
%TD*%
D40*
%TO.C,J1*%
X182800000Y-82471000D03*
X182800000Y-73821000D03*
D41*
X186970000Y-82471000D03*
X186970000Y-73821000D03*
%TD*%
D33*
%TO.C,R16*%
X123949000Y-83374000D03*
X127049000Y-83374000D03*
%TD*%
D15*
%TO.C,JP14*%
X115083000Y-105510000D03*
D16*
X116383000Y-105510000D03*
%TD*%
D42*
%TO.C,U13*%
X136648089Y-83603000D03*
X139747911Y-83603000D03*
%TD*%
D26*
%TO.C,U4*%
X115176000Y-75732000D03*
X115176000Y-76682000D03*
X115176000Y-77632000D03*
X117686000Y-77632000D03*
X117686000Y-76682000D03*
X117686000Y-75732000D03*
%TD*%
D15*
%TO.C,JP16*%
X179429000Y-98761000D03*
D16*
X180729000Y-98761000D03*
%TD*%
D43*
%TO.C,JP18*%
X179632000Y-103219000D03*
D44*
X180932000Y-103219000D03*
D45*
X182232000Y-103219000D03*
%TD*%
D14*
%TO.C,C19*%
X168049500Y-96998000D03*
X169774500Y-96998000D03*
%TD*%
D46*
%TO.C,R6*%
X116680500Y-58619000D03*
X114855500Y-58619000D03*
%TD*%
D27*
%TO.C,C12*%
X142391500Y-62415000D03*
X140666500Y-62415000D03*
%TD*%
D47*
%TO.C,R5*%
X115205000Y-68851000D03*
X121305000Y-68851000D03*
%TD*%
D48*
%TO.C,U11*%
X178615996Y-94629306D03*
X179885999Y-94629306D03*
X181156001Y-94629306D03*
X182426004Y-94629306D03*
X182426004Y-88812694D03*
X181156001Y-88812694D03*
X179885999Y-88812694D03*
X178615996Y-88812694D03*
D49*
X180521000Y-91721000D03*
%TD*%
D34*
%TO.C,U7*%
X114769000Y-86291000D03*
X114769000Y-86941000D03*
X114769000Y-87591000D03*
X114769000Y-88241000D03*
X114769000Y-88891000D03*
X114769000Y-89541000D03*
X114769000Y-90191000D03*
X114769000Y-90841000D03*
X120494000Y-90841000D03*
X120494000Y-90191000D03*
X120494000Y-89541000D03*
X120494000Y-88891000D03*
X120494000Y-88241000D03*
X120494000Y-87591000D03*
X120494000Y-86941000D03*
X120494000Y-86291000D03*
%TD*%
D14*
%TO.C,C13*%
X136573500Y-81165000D03*
X138298500Y-81165000D03*
%TD*%
D15*
%TO.C,JP9*%
X120586000Y-80161000D03*
D16*
X121886000Y-80161000D03*
%TD*%
M02*
